solid ASCII
  facet normal 0.000000e+00 0.000000e+00 -1.000000e+00
    outer loop
      vertex   1.178500e+02 -6.265000e+01 1.700000e+01
      vertex   4.350000e+00 -6.265000e+01 1.700000e+01
      vertex   1.178500e+02 -4.350000e+00 1.700000e+01
    endloop
  endfacet
  facet normal 0.000000e+00 0.000000e+00 -1.000000e+00
    outer loop
      vertex   1.178500e+02 -4.350000e+00 1.700000e+01
      vertex   4.350000e+00 -6.265000e+01 1.700000e+01
      vertex   4.350000e+00 -4.350000e+00 1.700000e+01
    endloop
  endfacet
  facet normal 0.000000e+00 0.000000e+00 1.000000e+00
    outer loop
      vertex   1.239743e+02 -2.608421e+00 1.900000e+01
      vertex   1.210000e+02 0.000000e+00 1.900000e+01
      vertex   1.240000e+02 -3.000000e+00 1.900000e+01
    endloop
  endfacet
  facet normal 0.000000e+00 0.000000e+00 1.000000e+00
    outer loop
      vertex   1.240000e+02 -3.000000e+00 1.900000e+01
      vertex   1.210000e+02 0.000000e+00 1.900000e+01
      vertex   3.000000e+00 0.000000e+00 1.900000e+01
    endloop
  endfacet
  facet normal 0.000000e+00 0.000000e+00 1.000000e+00
    outer loop
      vertex   1.240000e+02 -3.000000e+00 1.900000e+01
      vertex   3.000000e+00 0.000000e+00 1.900000e+01
      vertex   0.000000e+00 -3.000000e+00 1.900000e+01
    endloop
  endfacet
  facet normal 0.000000e+00 0.000000e+00 1.000000e+00
    outer loop
      vertex   0.000000e+00 -3.000000e+00 1.900000e+01
      vertex   3.000000e+00 0.000000e+00 1.900000e+01
      vertex   2.566542e-02 -2.608421e+00 1.900000e+01
    endloop
  endfacet
  facet normal 0.000000e+00 0.000000e+00 1.000000e+00
    outer loop
      vertex   2.566542e-02 -2.608421e+00 1.900000e+01
      vertex   3.000000e+00 0.000000e+00 1.900000e+01
      vertex   1.022225e-01 -2.223543e+00 1.900000e+01
    endloop
  endfacet
  facet normal 0.000000e+00 0.000000e+00 1.000000e+00
    outer loop
      vertex   1.022225e-01 -2.223543e+00 1.900000e+01
      vertex   3.000000e+00 0.000000e+00 1.900000e+01
      vertex   2.283614e-01 -1.851950e+00 1.900000e+01
    endloop
  endfacet
  facet normal 0.000000e+00 0.000000e+00 1.000000e+00
    outer loop
      vertex   2.283614e-01 -1.851950e+00 1.900000e+01
      vertex   3.000000e+00 0.000000e+00 1.900000e+01
      vertex   4.019238e-01 -1.500000e+00 1.900000e+01
    endloop
  endfacet
  facet normal 0.000000e+00 0.000000e+00 1.000000e+00
    outer loop
      vertex   4.019238e-01 -1.500000e+00 1.900000e+01
      vertex   3.000000e+00 0.000000e+00 1.900000e+01
      vertex   6.199400e-01 -1.173716e+00 1.900000e+01
    endloop
  endfacet
  facet normal 0.000000e+00 0.000000e+00 1.000000e+00
    outer loop
      vertex   6.199400e-01 -1.173716e+00 1.900000e+01
      vertex   3.000000e+00 0.000000e+00 1.900000e+01
      vertex   8.786797e-01 -8.786797e-01 1.900000e+01
    endloop
  endfacet
  facet normal 0.000000e+00 0.000000e+00 1.000000e+00
    outer loop
      vertex   8.786797e-01 -8.786797e-01 1.900000e+01
      vertex   3.000000e+00 0.000000e+00 1.900000e+01
      vertex   1.173716e+00 -6.199400e-01 1.900000e+01
    endloop
  endfacet
  facet normal 0.000000e+00 0.000000e+00 1.000000e+00
    outer loop
      vertex   1.173716e+00 -6.199400e-01 1.900000e+01
      vertex   3.000000e+00 0.000000e+00 1.900000e+01
      vertex   1.500000e+00 -4.019238e-01 1.900000e+01
    endloop
  endfacet
  facet normal 0.000000e+00 0.000000e+00 1.000000e+00
    outer loop
      vertex   1.500000e+00 -4.019238e-01 1.900000e+01
      vertex   3.000000e+00 0.000000e+00 1.900000e+01
      vertex   1.851950e+00 -2.283614e-01 1.900000e+01
    endloop
  endfacet
  facet normal 0.000000e+00 0.000000e+00 1.000000e+00
    outer loop
      vertex   1.851950e+00 -2.283614e-01 1.900000e+01
      vertex   3.000000e+00 0.000000e+00 1.900000e+01
      vertex   2.223543e+00 -1.022225e-01 1.900000e+01
    endloop
  endfacet
  facet normal 0.000000e+00 0.000000e+00 1.000000e+00
    outer loop
      vertex   2.223543e+00 -1.022225e-01 1.900000e+01
      vertex   3.000000e+00 0.000000e+00 1.900000e+01
      vertex   2.608421e+00 -2.566542e-02 1.900000e+01
    endloop
  endfacet
  facet normal 0.000000e+00 0.000000e+00 1.000000e+00
    outer loop
      vertex   1.239743e+02 -2.608421e+00 1.900000e+01
      vertex   1.238978e+02 -2.223543e+00 1.900000e+01
      vertex   1.210000e+02 0.000000e+00 1.900000e+01
    endloop
  endfacet
  facet normal 0.000000e+00 0.000000e+00 1.000000e+00
    outer loop
      vertex   1.210000e+02 0.000000e+00 1.900000e+01
      vertex   1.238978e+02 -2.223543e+00 1.900000e+01
      vertex   1.237716e+02 -1.851950e+00 1.900000e+01
    endloop
  endfacet
  facet normal 0.000000e+00 0.000000e+00 1.000000e+00
    outer loop
      vertex   1.210000e+02 0.000000e+00 1.900000e+01
      vertex   1.237716e+02 -1.851950e+00 1.900000e+01
      vertex   1.235981e+02 -1.500000e+00 1.900000e+01
    endloop
  endfacet
  facet normal 0.000000e+00 0.000000e+00 1.000000e+00
    outer loop
      vertex   1.235981e+02 -1.500000e+00 1.900000e+01
      vertex   1.233801e+02 -1.173716e+00 1.900000e+01
      vertex   1.210000e+02 0.000000e+00 1.900000e+01
    endloop
  endfacet
  facet normal 0.000000e+00 0.000000e+00 1.000000e+00
    outer loop
      vertex   1.210000e+02 0.000000e+00 1.900000e+01
      vertex   1.233801e+02 -1.173716e+00 1.900000e+01
      vertex   1.231213e+02 -8.786797e-01 1.900000e+01
    endloop
  endfacet
  facet normal 0.000000e+00 0.000000e+00 1.000000e+00
    outer loop
      vertex   1.210000e+02 0.000000e+00 1.900000e+01
      vertex   1.231213e+02 -8.786797e-01 1.900000e+01
      vertex   1.228263e+02 -6.199400e-01 1.900000e+01
    endloop
  endfacet
  facet normal 0.000000e+00 0.000000e+00 1.000000e+00
    outer loop
      vertex   1.228263e+02 -6.199400e-01 1.900000e+01
      vertex   1.225000e+02 -4.019238e-01 1.900000e+01
      vertex   1.210000e+02 0.000000e+00 1.900000e+01
    endloop
  endfacet
  facet normal 0.000000e+00 0.000000e+00 1.000000e+00
    outer loop
      vertex   1.210000e+02 0.000000e+00 1.900000e+01
      vertex   1.225000e+02 -4.019238e-01 1.900000e+01
      vertex   1.221481e+02 -2.283614e-01 1.900000e+01
    endloop
  endfacet
  facet normal 0.000000e+00 0.000000e+00 1.000000e+00
    outer loop
      vertex   1.210000e+02 0.000000e+00 1.900000e+01
      vertex   1.221481e+02 -2.283614e-01 1.900000e+01
      vertex   1.217765e+02 -1.022225e-01 1.900000e+01
    endloop
  endfacet
  facet normal 0.000000e+00 0.000000e+00 1.000000e+00
    outer loop
      vertex   1.217765e+02 -1.022225e-01 1.900000e+01
      vertex   1.213916e+02 -2.566542e-02 1.900000e+01
      vertex   1.210000e+02 0.000000e+00 1.900000e+01
    endloop
  endfacet
  facet normal 0.000000e+00 0.000000e+00 1.000000e+00
    outer loop
      vertex   1.240000e+02 -3.000000e+00 1.900000e+01
      vertex   0.000000e+00 -3.000000e+00 1.900000e+01
      vertex   1.240000e+02 -6.400000e+01 1.900000e+01
    endloop
  endfacet
  facet normal 0.000000e+00 0.000000e+00 1.000000e+00
    outer loop
      vertex   1.240000e+02 -6.400000e+01 1.900000e+01
      vertex   0.000000e+00 -3.000000e+00 1.900000e+01
      vertex   0.000000e+00 -6.400000e+01 1.900000e+01
    endloop
  endfacet
  facet normal 0.000000e+00 0.000000e+00 1.000000e+00
    outer loop
      vertex   1.240000e+02 -6.400000e+01 1.900000e+01
      vertex   0.000000e+00 -6.400000e+01 1.900000e+01
      vertex   1.210000e+02 -6.700000e+01 1.900000e+01
    endloop
  endfacet
  facet normal 0.000000e+00 0.000000e+00 1.000000e+00
    outer loop
      vertex   1.210000e+02 -6.700000e+01 1.900000e+01
      vertex   0.000000e+00 -6.400000e+01 1.900000e+01
      vertex   2.608421e+00 -6.697433e+01 1.900000e+01
    endloop
  endfacet
  facet normal 0.000000e+00 0.000000e+00 1.000000e+00
    outer loop
      vertex   1.210000e+02 -6.700000e+01 1.900000e+01
      vertex   2.608421e+00 -6.697433e+01 1.900000e+01
      vertex   3.000000e+00 -6.700000e+01 1.900000e+01
    endloop
  endfacet
  facet normal 0.000000e+00 0.000000e+00 1.000000e+00
    outer loop
      vertex   0.000000e+00 -6.400000e+01 1.900000e+01
      vertex   2.566542e-02 -6.439158e+01 1.900000e+01
      vertex   2.608421e+00 -6.697433e+01 1.900000e+01
    endloop
  endfacet
  facet normal 0.000000e+00 0.000000e+00 1.000000e+00
    outer loop
      vertex   2.608421e+00 -6.697433e+01 1.900000e+01
      vertex   2.566542e-02 -6.439158e+01 1.900000e+01
      vertex   1.022225e-01 -6.477646e+01 1.900000e+01
    endloop
  endfacet
  facet normal 0.000000e+00 0.000000e+00 1.000000e+00
    outer loop
      vertex   2.608421e+00 -6.697433e+01 1.900000e+01
      vertex   1.022225e-01 -6.477646e+01 1.900000e+01
      vertex   2.283614e-01 -6.514805e+01 1.900000e+01
    endloop
  endfacet
  facet normal 0.000000e+00 0.000000e+00 1.000000e+00
    outer loop
      vertex   2.283614e-01 -6.514805e+01 1.900000e+01
      vertex   4.019238e-01 -6.550000e+01 1.900000e+01
      vertex   2.608421e+00 -6.697433e+01 1.900000e+01
    endloop
  endfacet
  facet normal 0.000000e+00 0.000000e+00 1.000000e+00
    outer loop
      vertex   2.608421e+00 -6.697433e+01 1.900000e+01
      vertex   4.019238e-01 -6.550000e+01 1.900000e+01
      vertex   6.199400e-01 -6.582628e+01 1.900000e+01
    endloop
  endfacet
  facet normal 0.000000e+00 0.000000e+00 1.000000e+00
    outer loop
      vertex   2.608421e+00 -6.697433e+01 1.900000e+01
      vertex   6.199400e-01 -6.582628e+01 1.900000e+01
      vertex   8.786797e-01 -6.612132e+01 1.900000e+01
    endloop
  endfacet
  facet normal 0.000000e+00 0.000000e+00 1.000000e+00
    outer loop
      vertex   8.786797e-01 -6.612132e+01 1.900000e+01
      vertex   1.173716e+00 -6.638006e+01 1.900000e+01
      vertex   2.608421e+00 -6.697433e+01 1.900000e+01
    endloop
  endfacet
  facet normal 0.000000e+00 0.000000e+00 1.000000e+00
    outer loop
      vertex   2.608421e+00 -6.697433e+01 1.900000e+01
      vertex   1.173716e+00 -6.638006e+01 1.900000e+01
      vertex   1.500000e+00 -6.659808e+01 1.900000e+01
    endloop
  endfacet
  facet normal 0.000000e+00 0.000000e+00 1.000000e+00
    outer loop
      vertex   2.608421e+00 -6.697433e+01 1.900000e+01
      vertex   1.500000e+00 -6.659808e+01 1.900000e+01
      vertex   1.851950e+00 -6.677164e+01 1.900000e+01
    endloop
  endfacet
  facet normal 0.000000e+00 0.000000e+00 1.000000e+00
    outer loop
      vertex   1.851950e+00 -6.677164e+01 1.900000e+01
      vertex   2.223543e+00 -6.689778e+01 1.900000e+01
      vertex   2.608421e+00 -6.697433e+01 1.900000e+01
    endloop
  endfacet
  facet normal 0.000000e+00 -0.000000e+00 1.000000e+00
    outer loop
      vertex   1.213916e+02 -6.697433e+01 1.900000e+01
      vertex   1.217765e+02 -6.689778e+01 1.900000e+01
      vertex   1.210000e+02 -6.700000e+01 1.900000e+01
    endloop
  endfacet
  facet normal 0.000000e+00 0.000000e+00 1.000000e+00
    outer loop
      vertex   1.210000e+02 -6.700000e+01 1.900000e+01
      vertex   1.217765e+02 -6.689778e+01 1.900000e+01
      vertex   1.221481e+02 -6.677164e+01 1.900000e+01
    endloop
  endfacet
  facet normal 0.000000e+00 0.000000e+00 1.000000e+00
    outer loop
      vertex   1.210000e+02 -6.700000e+01 1.900000e+01
      vertex   1.221481e+02 -6.677164e+01 1.900000e+01
      vertex   1.225000e+02 -6.659808e+01 1.900000e+01
    endloop
  endfacet
  facet normal 0.000000e+00 -0.000000e+00 1.000000e+00
    outer loop
      vertex   1.225000e+02 -6.659808e+01 1.900000e+01
      vertex   1.228263e+02 -6.638006e+01 1.900000e+01
      vertex   1.210000e+02 -6.700000e+01 1.900000e+01
    endloop
  endfacet
  facet normal 0.000000e+00 0.000000e+00 1.000000e+00
    outer loop
      vertex   1.210000e+02 -6.700000e+01 1.900000e+01
      vertex   1.228263e+02 -6.638006e+01 1.900000e+01
      vertex   1.231213e+02 -6.612132e+01 1.900000e+01
    endloop
  endfacet
  facet normal 0.000000e+00 0.000000e+00 1.000000e+00
    outer loop
      vertex   1.210000e+02 -6.700000e+01 1.900000e+01
      vertex   1.231213e+02 -6.612132e+01 1.900000e+01
      vertex   1.233801e+02 -6.582628e+01 1.900000e+01
    endloop
  endfacet
  facet normal 0.000000e+00 -0.000000e+00 1.000000e+00
    outer loop
      vertex   1.233801e+02 -6.582628e+01 1.900000e+01
      vertex   1.235981e+02 -6.550000e+01 1.900000e+01
      vertex   1.210000e+02 -6.700000e+01 1.900000e+01
    endloop
  endfacet
  facet normal 0.000000e+00 0.000000e+00 1.000000e+00
    outer loop
      vertex   1.210000e+02 -6.700000e+01 1.900000e+01
      vertex   1.235981e+02 -6.550000e+01 1.900000e+01
      vertex   1.237716e+02 -6.514805e+01 1.900000e+01
    endloop
  endfacet
  facet normal 0.000000e+00 0.000000e+00 1.000000e+00
    outer loop
      vertex   1.210000e+02 -6.700000e+01 1.900000e+01
      vertex   1.237716e+02 -6.514805e+01 1.900000e+01
      vertex   1.238978e+02 -6.477646e+01 1.900000e+01
    endloop
  endfacet
  facet normal 0.000000e+00 -0.000000e+00 1.000000e+00
    outer loop
      vertex   1.238978e+02 -6.477646e+01 1.900000e+01
      vertex   1.239743e+02 -6.439158e+01 1.900000e+01
      vertex   1.210000e+02 -6.700000e+01 1.900000e+01
    endloop
  endfacet
  facet normal 0.000000e+00 0.000000e+00 1.000000e+00
    outer loop
      vertex   1.210000e+02 -6.700000e+01 1.900000e+01
      vertex   1.239743e+02 -6.439158e+01 1.900000e+01
      vertex   1.240000e+02 -6.400000e+01 1.900000e+01
    endloop
  endfacet
  facet normal -0.000000e+00 -1.000000e+00 -0.000000e+00
    outer loop
      vertex   4.350000e+00 -1.237506e+01 1.250000e+01
      vertex   1.850000e+00 -1.237506e+01 1.250000e+01
      vertex   4.350000e+00 -1.237506e+01 5.500000e+00
    endloop
  endfacet
  facet normal 0.000000e+00 -1.000000e+00 0.000000e+00
    outer loop
      vertex   4.350000e+00 -1.237506e+01 5.500000e+00
      vertex   1.850000e+00 -1.237506e+01 1.250000e+01
      vertex   1.850000e+00 -1.237506e+01 5.500000e+00
    endloop
  endfacet
  facet normal -3.552714e-16 1.106756e-16 -1.000000e+00
    outer loop
      vertex   4.350000e+00 -1.237506e+01 5.500000e+00
      vertex   1.850000e+00 -1.237506e+01 5.500000e+00
      vertex   4.350000e+00 -4.350000e+00 5.500000e+00
    endloop
  endfacet
  facet normal -0.000000e+00 0.000000e+00 -1.000000e+00
    outer loop
      vertex   4.350000e+00 -4.350000e+00 5.500000e+00
      vertex   1.850000e+00 -1.237506e+01 5.500000e+00
      vertex   1.850000e+00 -1.850000e+00 5.500000e+00
    endloop
  endfacet
  facet normal 0.000000e+00 0.000000e+00 -1.000000e+00
    outer loop
      vertex   4.350000e+00 -4.350000e+00 5.500000e+00
      vertex   1.850000e+00 -1.850000e+00 5.500000e+00
      vertex   1.010000e+01 -1.850000e+00 5.500000e+00
    endloop
  endfacet
  facet normal 0.000000e+00 -0.000000e+00 -1.000000e+00
    outer loop
      vertex   1.010000e+01 -1.850000e+00 5.500000e+00
      vertex   1.010000e+01 -4.350000e+00 5.500000e+00
      vertex   4.350000e+00 -4.350000e+00 5.500000e+00
    endloop
  endfacet
  facet normal -1.000000e+00 -2.531610e-16 -1.268826e-16
    outer loop
      vertex   1.850000e+00 -1.237506e+01 5.500000e+00
      vertex   1.850000e+00 -1.237506e+01 1.250000e+01
      vertex   1.850000e+00 -1.850000e+00 5.500000e+00
    endloop
  endfacet
  facet normal -1.000000e+00 -1.687740e-16 0.000000e+00
    outer loop
      vertex   1.850000e+00 -1.850000e+00 5.500000e+00
      vertex   1.850000e+00 -1.237506e+01 1.250000e+01
      vertex   1.850000e+00 -1.850000e+00 1.420000e+01
    endloop
  endfacet
  facet normal -1.000000e+00 -7.731715e-17 -5.662289e-16
    outer loop
      vertex   1.850000e+00 -1.850000e+00 1.420000e+01
      vertex   1.850000e+00 -1.237506e+01 1.250000e+01
      vertex   1.850000e+00 -3.535000e+01 1.250000e+01
    endloop
  endfacet
  facet normal -1.000000e+00 -5.612502e-17 -9.838386e-16
    outer loop
      vertex   1.850000e+00 -1.850000e+00 1.420000e+01
      vertex   1.850000e+00 -3.535000e+01 1.250000e+01
      vertex   1.850000e+00 -6.515000e+01 1.420000e+01
    endloop
  endfacet
  facet normal -1.000000e+00 0.000000e+00 0.000000e+00
    outer loop
      vertex   1.850000e+00 -6.515000e+01 1.420000e+01
      vertex   1.850000e+00 -3.535000e+01 1.250000e+01
      vertex   1.850000e+00 -6.515000e+01 5.500000e+00
    endloop
  endfacet
  facet normal -1.000000e+00 -7.451161e-18 3.172066e-17
    outer loop
      vertex   1.850000e+00 -6.515000e+01 5.500000e+00
      vertex   1.850000e+00 -3.535000e+01 1.250000e+01
      vertex   1.850000e+00 -3.535000e+01 5.500000e+00
    endloop
  endfacet
  facet normal 0.000000e+00 -1.000000e+00 0.000000e+00
    outer loop
      vertex   6.510000e+01 -6.515000e+01 1.030000e+01
      vertex   6.710000e+01 -6.515000e+01 1.250000e+01
      vertex   6.510000e+01 -6.515000e+01 1.170000e+01
    endloop
  endfacet
  facet normal 0.000000e+00 -1.000000e+00 0.000000e+00
    outer loop
      vertex   6.510000e+01 -6.515000e+01 1.170000e+01
      vertex   6.710000e+01 -6.515000e+01 1.250000e+01
      vertex   5.510000e+01 -6.515000e+01 1.250000e+01
    endloop
  endfacet
  facet normal 0.000000e+00 -1.000000e+00 0.000000e+00
    outer loop
      vertex   6.510000e+01 -6.515000e+01 1.170000e+01
      vertex   5.510000e+01 -6.515000e+01 1.250000e+01
      vertex   5.710000e+01 -6.515000e+01 1.170000e+01
    endloop
  endfacet
  facet normal -0.000000e+00 -1.000000e+00 -0.000000e+00
    outer loop
      vertex   5.710000e+01 -6.515000e+01 1.170000e+01
      vertex   5.510000e+01 -6.515000e+01 1.250000e+01
      vertex   5.710000e+01 -6.515000e+01 1.030000e+01
    endloop
  endfacet
  facet normal -0.000000e+00 -1.000000e+00 0.000000e+00
    outer loop
      vertex   5.710000e+01 -6.515000e+01 1.030000e+01
      vertex   5.510000e+01 -6.515000e+01 1.250000e+01
      vertex   5.510000e+01 -6.515000e+01 5.500000e+00
    endloop
  endfacet
  facet normal 0.000000e+00 -1.000000e+00 -0.000000e+00
    outer loop
      vertex   5.710000e+01 -6.515000e+01 1.030000e+01
      vertex   5.510000e+01 -6.515000e+01 5.500000e+00
      vertex   6.710000e+01 -6.515000e+01 5.500000e+00
    endloop
  endfacet
  facet normal 0.000000e+00 -1.000000e+00 -0.000000e+00
    outer loop
      vertex   6.710000e+01 -6.515000e+01 1.250000e+01
      vertex   6.510000e+01 -6.515000e+01 1.030000e+01
      vertex   6.710000e+01 -6.515000e+01 5.500000e+00
    endloop
  endfacet
  facet normal 0.000000e+00 -1.000000e+00 0.000000e+00
    outer loop
      vertex   6.710000e+01 -6.515000e+01 5.500000e+00
      vertex   6.510000e+01 -6.515000e+01 1.030000e+01
      vertex   5.710000e+01 -6.515000e+01 1.030000e+01
    endloop
  endfacet
  facet normal 0.000000e+00 -1.000000e+00 0.000000e+00
    outer loop
      vertex   1.850000e+00 -6.515000e+01 1.420000e+01
      vertex   6.710000e+01 -6.515000e+01 1.250000e+01
      vertex   1.203500e+02 -6.515000e+01 1.420000e+01
    endloop
  endfacet
  facet normal 0.000000e+00 -1.000000e+00 0.000000e+00
    outer loop
      vertex   1.203500e+02 -6.515000e+01 1.420000e+01
      vertex   6.710000e+01 -6.515000e+01 1.250000e+01
      vertex   6.810000e+01 -6.515000e+01 1.250000e+01
    endloop
  endfacet
  facet normal 0.000000e+00 -1.000000e+00 0.000000e+00
    outer loop
      vertex   1.203500e+02 -6.515000e+01 1.420000e+01
      vertex   6.810000e+01 -6.515000e+01 1.250000e+01
      vertex   8.610000e+01 -6.515000e+01 1.250000e+01
    endloop
  endfacet
  facet normal -0.000000e+00 -1.000000e+00 -0.000000e+00
    outer loop
      vertex   8.610000e+01 -6.515000e+01 1.250000e+01
      vertex   6.810000e+01 -6.515000e+01 1.250000e+01
      vertex   8.610000e+01 -6.515000e+01 5.500000e+00
    endloop
  endfacet
  facet normal 0.000000e+00 -1.000000e+00 0.000000e+00
    outer loop
      vertex   8.610000e+01 -6.515000e+01 5.500000e+00
      vertex   6.810000e+01 -6.515000e+01 1.250000e+01
      vertex   6.810000e+01 -6.515000e+01 5.500000e+00
    endloop
  endfacet
  facet normal 0.000000e+00 -1.000000e+00 0.000000e+00
    outer loop
      vertex   1.850000e+00 -6.515000e+01 5.500000e+00
      vertex   1.235000e+01 -6.515000e+01 1.250000e+01
      vertex   1.850000e+00 -6.515000e+01 1.420000e+01
    endloop
  endfacet
  facet normal 0.000000e+00 -1.000000e+00 0.000000e+00
    outer loop
      vertex   1.850000e+00 -6.515000e+01 1.420000e+01
      vertex   1.235000e+01 -6.515000e+01 1.250000e+01
      vertex   3.610000e+01 -6.515000e+01 1.250000e+01
    endloop
  endfacet
  facet normal 0.000000e+00 -1.000000e+00 0.000000e+00
    outer loop
      vertex   1.850000e+00 -6.515000e+01 1.420000e+01
      vertex   3.610000e+01 -6.515000e+01 1.250000e+01
      vertex   5.410000e+01 -6.515000e+01 1.250000e+01
    endloop
  endfacet
  facet normal -0.000000e+00 -1.000000e+00 -0.000000e+00
    outer loop
      vertex   5.410000e+01 -6.515000e+01 1.250000e+01
      vertex   3.610000e+01 -6.515000e+01 1.250000e+01
      vertex   5.410000e+01 -6.515000e+01 5.500000e+00
    endloop
  endfacet
  facet normal 0.000000e+00 -1.000000e+00 0.000000e+00
    outer loop
      vertex   5.410000e+01 -6.515000e+01 5.500000e+00
      vertex   3.610000e+01 -6.515000e+01 1.250000e+01
      vertex   3.610000e+01 -6.515000e+01 5.500000e+00
    endloop
  endfacet
  facet normal 0.000000e+00 -1.000000e+00 0.000000e+00
    outer loop
      vertex   1.850000e+00 -6.515000e+01 5.500000e+00
      vertex   1.235000e+01 -6.515000e+01 5.500000e+00
      vertex   1.235000e+01 -6.515000e+01 1.250000e+01
    endloop
  endfacet
  facet normal 0.000000e+00 -1.000000e+00 0.000000e+00
    outer loop
      vertex   5.410000e+01 -6.515000e+01 1.250000e+01
      vertex   5.510000e+01 -6.515000e+01 1.250000e+01
      vertex   1.850000e+00 -6.515000e+01 1.420000e+01
    endloop
  endfacet
  facet normal 0.000000e+00 -1.000000e+00 0.000000e+00
    outer loop
      vertex   1.850000e+00 -6.515000e+01 1.420000e+01
      vertex   5.510000e+01 -6.515000e+01 1.250000e+01
      vertex   6.710000e+01 -6.515000e+01 1.250000e+01
    endloop
  endfacet
  facet normal 0.000000e+00 -1.000000e+00 0.000000e+00
    outer loop
      vertex   8.610000e+01 -6.515000e+01 1.250000e+01
      vertex   1.098500e+02 -6.515000e+01 1.250000e+01
      vertex   1.203500e+02 -6.515000e+01 1.420000e+01
    endloop
  endfacet
  facet normal 0.000000e+00 -1.000000e+00 -0.000000e+00
    outer loop
      vertex   1.203500e+02 -6.515000e+01 1.420000e+01
      vertex   1.098500e+02 -6.515000e+01 1.250000e+01
      vertex   1.203500e+02 -6.515000e+01 5.500000e+00
    endloop
  endfacet
  facet normal 0.000000e+00 -1.000000e+00 0.000000e+00
    outer loop
      vertex   1.203500e+02 -6.515000e+01 5.500000e+00
      vertex   1.098500e+02 -6.515000e+01 1.250000e+01
      vertex   1.098500e+02 -6.515000e+01 5.500000e+00
    endloop
  endfacet
  facet normal -1.000000e+00 0.000000e+00 2.471453e-15
    outer loop
      vertex   1.178500e+02 -4.350000e+00 5.500000e+00
      vertex   1.178500e+02 -6.265000e+01 5.500000e+00
      vertex   1.178500e+02 -4.350000e+00 1.700000e+01
    endloop
  endfacet
  facet normal -1.000000e+00 0.000000e+00 2.471453e-15
    outer loop
      vertex   1.178500e+02 -4.350000e+00 1.700000e+01
      vertex   1.178500e+02 -6.265000e+01 5.500000e+00
      vertex   1.178500e+02 -6.265000e+01 1.700000e+01
    endloop
  endfacet
  facet normal 0.000000e+00 -1.000000e+00 0.000000e+00
    outer loop
      vertex   4.350000e+00 -4.350000e+00 5.500000e+00
      vertex   1.010000e+01 -4.350000e+00 1.250000e+01
      vertex   4.350000e+00 -4.350000e+00 1.700000e+01
    endloop
  endfacet
  facet normal 1.973730e-17 -1.000000e+00 2.521988e-17
    outer loop
      vertex   4.350000e+00 -4.350000e+00 1.700000e+01
      vertex   1.010000e+01 -4.350000e+00 1.250000e+01
      vertex   5.510000e+01 -4.350000e+00 1.250000e+01
    endloop
  endfacet
  facet normal 0.000000e+00 -1.000000e+00 -1.973730e-16
    outer loop
      vertex   4.350000e+00 -4.350000e+00 1.700000e+01
      vertex   5.510000e+01 -4.350000e+00 1.250000e+01
      vertex   6.710000e+01 -4.350000e+00 1.250000e+01
    endloop
  endfacet
  facet normal -0.000000e+00 -1.000000e+00 -0.000000e+00
    outer loop
      vertex   6.710000e+01 -4.350000e+00 1.250000e+01
      vertex   5.510000e+01 -4.350000e+00 1.250000e+01
      vertex   6.710000e+01 -4.350000e+00 8.500000e+00
    endloop
  endfacet
  facet normal 0.000000e+00 -1.000000e+00 0.000000e+00
    outer loop
      vertex   6.710000e+01 -4.350000e+00 8.500000e+00
      vertex   5.510000e+01 -4.350000e+00 1.250000e+01
      vertex   5.510000e+01 -4.350000e+00 8.500000e+00
    endloop
  endfacet
  facet normal -1.544658e-16 -1.000000e+00 1.268826e-16
    outer loop
      vertex   4.350000e+00 -4.350000e+00 5.500000e+00
      vertex   1.010000e+01 -4.350000e+00 5.500000e+00
      vertex   1.010000e+01 -4.350000e+00 1.250000e+01
    endloop
  endfacet
  facet normal 4.695216e-17 -1.000000e+00 4.573488e-16
    outer loop
      vertex   4.350000e+00 -4.350000e+00 1.700000e+01
      vertex   6.710000e+01 -4.350000e+00 1.250000e+01
      vertex   1.178500e+02 -4.350000e+00 1.700000e+01
    endloop
  endfacet
  facet normal 1.973730e-17 -1.000000e+00 7.642720e-16
    outer loop
      vertex   1.178500e+02 -4.350000e+00 1.700000e+01
      vertex   6.710000e+01 -4.350000e+00 1.250000e+01
      vertex   1.121000e+02 -4.350000e+00 1.250000e+01
    endloop
  endfacet
  facet normal 4.365338e-16 -1.000000e+00 2.316987e-16
    outer loop
      vertex   1.178500e+02 -4.350000e+00 1.700000e+01
      vertex   1.121000e+02 -4.350000e+00 1.250000e+01
      vertex   1.178500e+02 -4.350000e+00 5.500000e+00
    endloop
  endfacet
  facet normal -0.000000e+00 -1.000000e+00 -1.268826e-16
    outer loop
      vertex   1.178500e+02 -4.350000e+00 5.500000e+00
      vertex   1.121000e+02 -4.350000e+00 1.250000e+01
      vertex   1.121000e+02 -4.350000e+00 5.500000e+00
    endloop
  endfacet
  facet normal 0.000000e+00 1.000000e+00 -0.000000e+00
    outer loop
      vertex   4.350000e+00 -3.535000e+01 5.500000e+00
      vertex   1.850000e+00 -3.535000e+01 5.500000e+00
      vertex   4.350000e+00 -3.535000e+01 1.250000e+01
    endloop
  endfacet
  facet normal 0.000000e+00 1.000000e+00 0.000000e+00
    outer loop
      vertex   4.350000e+00 -3.535000e+01 1.250000e+01
      vertex   1.850000e+00 -3.535000e+01 5.500000e+00
      vertex   1.850000e+00 -3.535000e+01 1.250000e+01
    endloop
  endfacet
  facet normal 0.000000e+00 0.000000e+00 -1.000000e+00
    outer loop
      vertex   4.350000e+00 -3.535000e+01 1.250000e+01
      vertex   1.850000e+00 -3.535000e+01 1.250000e+01
      vertex   4.350000e+00 -1.237506e+01 1.250000e+01
    endloop
  endfacet
  facet normal -0.000000e+00 0.000000e+00 -1.000000e+00
    outer loop
      vertex   4.350000e+00 -1.237506e+01 1.250000e+01
      vertex   1.850000e+00 -3.535000e+01 1.250000e+01
      vertex   1.850000e+00 -1.237506e+01 1.250000e+01
    endloop
  endfacet
  facet normal -0.000000e+00 0.000000e+00 -1.000000e+00
    outer loop
      vertex   4.350000e+00 -3.535000e+01 5.500000e+00
      vertex   4.350000e+00 -6.265000e+01 5.500000e+00
      vertex   1.850000e+00 -3.535000e+01 5.500000e+00
    endloop
  endfacet
  facet normal 0.000000e+00 0.000000e+00 -1.000000e+00
    outer loop
      vertex   1.850000e+00 -3.535000e+01 5.500000e+00
      vertex   4.350000e+00 -6.265000e+01 5.500000e+00
      vertex   1.850000e+00 -6.515000e+01 5.500000e+00
    endloop
  endfacet
  facet normal 0.000000e+00 0.000000e+00 -1.000000e+00
    outer loop
      vertex   1.850000e+00 -6.515000e+01 5.500000e+00
      vertex   4.350000e+00 -6.265000e+01 5.500000e+00
      vertex   1.235000e+01 -6.515000e+01 5.500000e+00
    endloop
  endfacet
  facet normal 0.000000e+00 0.000000e+00 -1.000000e+00
    outer loop
      vertex   1.235000e+01 -6.515000e+01 5.500000e+00
      vertex   4.350000e+00 -6.265000e+01 5.500000e+00
      vertex   1.235000e+01 -6.265000e+01 5.500000e+00
    endloop
  endfacet
  facet normal -1.000000e+00 0.000000e+00 0.000000e+00
    outer loop
      vertex   1.098500e+02 -6.265000e+01 5.500000e+00
      vertex   1.098500e+02 -6.515000e+01 5.500000e+00
      vertex   1.098500e+02 -6.265000e+01 1.250000e+01
    endloop
  endfacet
  facet normal -1.000000e+00 -0.000000e+00 0.000000e+00
    outer loop
      vertex   1.098500e+02 -6.265000e+01 1.250000e+01
      vertex   1.098500e+02 -6.515000e+01 5.500000e+00
      vertex   1.098500e+02 -6.515000e+01 1.250000e+01
    endloop
  endfacet
  facet normal 1.000000e+00 0.000000e+00 0.000000e+00
    outer loop
      vertex   8.610000e+01 -6.515000e+01 5.500000e+00
      vertex   8.610000e+01 -6.265000e+01 5.500000e+00
      vertex   8.610000e+01 -6.515000e+01 1.250000e+01
    endloop
  endfacet
  facet normal 1.000000e+00 -0.000000e+00 0.000000e+00
    outer loop
      vertex   8.610000e+01 -6.515000e+01 1.250000e+01
      vertex   8.610000e+01 -6.265000e+01 5.500000e+00
      vertex   8.610000e+01 -6.265000e+01 1.250000e+01
    endloop
  endfacet
  facet normal 0.000000e+00 0.000000e+00 -1.000000e+00
    outer loop
      vertex   8.610000e+01 -6.265000e+01 1.250000e+01
      vertex   1.098500e+02 -6.265000e+01 1.250000e+01
      vertex   8.610000e+01 -6.515000e+01 1.250000e+01
    endloop
  endfacet
  facet normal 0.000000e+00 0.000000e+00 -1.000000e+00
    outer loop
      vertex   8.610000e+01 -6.515000e+01 1.250000e+01
      vertex   1.098500e+02 -6.265000e+01 1.250000e+01
      vertex   1.098500e+02 -6.515000e+01 1.250000e+01
    endloop
  endfacet
  facet normal 1.000000e+00 -2.131628e-15 0.000000e+00
    outer loop
      vertex   1.235000e+01 -6.515000e+01 5.500000e+00
      vertex   1.235000e+01 -6.265000e+01 5.500000e+00
      vertex   1.235000e+01 -6.515000e+01 1.250000e+01
    endloop
  endfacet
  facet normal 1.000000e+00 -2.131628e-15 0.000000e+00
    outer loop
      vertex   1.235000e+01 -6.515000e+01 1.250000e+01
      vertex   1.235000e+01 -6.265000e+01 5.500000e+00
      vertex   1.235000e+01 -6.265000e+01 1.250000e+01
    endloop
  endfacet
  facet normal -1.000000e+00 2.842171e-15 0.000000e+00
    outer loop
      vertex   3.610000e+01 -6.265000e+01 5.500000e+00
      vertex   3.610000e+01 -6.515000e+01 5.500000e+00
      vertex   3.610000e+01 -6.265000e+01 1.250000e+01
    endloop
  endfacet
  facet normal -1.000000e+00 2.842171e-15 0.000000e+00
    outer loop
      vertex   3.610000e+01 -6.265000e+01 1.250000e+01
      vertex   3.610000e+01 -6.515000e+01 5.500000e+00
      vertex   3.610000e+01 -6.515000e+01 1.250000e+01
    endloop
  endfacet
  facet normal 0.000000e+00 0.000000e+00 -1.000000e+00
    outer loop
      vertex   3.610000e+01 -6.515000e+01 1.250000e+01
      vertex   1.235000e+01 -6.515000e+01 1.250000e+01
      vertex   3.610000e+01 -6.265000e+01 1.250000e+01
    endloop
  endfacet
  facet normal -0.000000e+00 0.000000e+00 -1.000000e+00
    outer loop
      vertex   3.610000e+01 -6.265000e+01 1.250000e+01
      vertex   1.235000e+01 -6.515000e+01 1.250000e+01
      vertex   1.235000e+01 -6.265000e+01 1.250000e+01
    endloop
  endfacet
  facet normal 0.000000e+00 0.000000e+00 -1.000000e+00
    outer loop
      vertex   8.610000e+01 -6.515000e+01 5.500000e+00
      vertex   6.810000e+01 -6.515000e+01 5.500000e+00
      vertex   8.610000e+01 -6.265000e+01 5.500000e+00
    endloop
  endfacet
  facet normal -0.000000e+00 0.000000e+00 -1.000000e+00
    outer loop
      vertex   8.610000e+01 -6.265000e+01 5.500000e+00
      vertex   6.810000e+01 -6.515000e+01 5.500000e+00
      vertex   6.810000e+01 -6.265000e+01 5.500000e+00
    endloop
  endfacet
  facet normal 0.000000e+00 0.000000e+00 -1.000000e+00
    outer loop
      vertex   1.098500e+02 -6.265000e+01 5.500000e+00
      vertex   1.178500e+02 -6.265000e+01 5.500000e+00
      vertex   1.098500e+02 -6.515000e+01 5.500000e+00
    endloop
  endfacet
  facet normal 0.000000e+00 0.000000e+00 -1.000000e+00
    outer loop
      vertex   1.098500e+02 -6.515000e+01 5.500000e+00
      vertex   1.178500e+02 -6.265000e+01 5.500000e+00
      vertex   1.203500e+02 -6.515000e+01 5.500000e+00
    endloop
  endfacet
  facet normal 0.000000e+00 0.000000e+00 -1.000000e+00
    outer loop
      vertex   1.203500e+02 -6.515000e+01 5.500000e+00
      vertex   1.178500e+02 -6.265000e+01 5.500000e+00
      vertex   1.178500e+02 -4.350000e+00 5.500000e+00
    endloop
  endfacet
  facet normal 0.000000e+00 0.000000e+00 -1.000000e+00
    outer loop
      vertex   1.203500e+02 -6.515000e+01 5.500000e+00
      vertex   1.178500e+02 -4.350000e+00 5.500000e+00
      vertex   1.203500e+02 -1.850000e+00 5.500000e+00
    endloop
  endfacet
  facet normal -0.000000e+00 0.000000e+00 -1.000000e+00
    outer loop
      vertex   1.203500e+02 -1.850000e+00 5.500000e+00
      vertex   1.178500e+02 -4.350000e+00 5.500000e+00
      vertex   1.121000e+02 -1.850000e+00 5.500000e+00
    endloop
  endfacet
  facet normal 0.000000e+00 0.000000e+00 -1.000000e+00
    outer loop
      vertex   1.121000e+02 -1.850000e+00 5.500000e+00
      vertex   1.178500e+02 -4.350000e+00 5.500000e+00
      vertex   1.121000e+02 -4.350000e+00 5.500000e+00
    endloop
  endfacet
  facet normal -3.475481e-16 1.000000e+00 6.178632e-16
    outer loop
      vertex   1.178500e+02 -6.265000e+01 5.500000e+00
      vertex   1.098500e+02 -6.265000e+01 1.250000e+01
      vertex   1.178500e+02 -6.265000e+01 1.700000e+01
    endloop
  endfacet
  facet normal 0.000000e+00 1.000000e+00 0.000000e+00
    outer loop
      vertex   1.178500e+02 -6.265000e+01 1.700000e+01
      vertex   1.098500e+02 -6.265000e+01 1.250000e+01
      vertex   8.610000e+01 -6.265000e+01 1.250000e+01
    endloop
  endfacet
  facet normal 0.000000e+00 1.000000e+00 0.000000e+00
    outer loop
      vertex   1.178500e+02 -6.265000e+01 1.700000e+01
      vertex   8.610000e+01 -6.265000e+01 1.250000e+01
      vertex   6.810000e+01 -6.265000e+01 1.250000e+01
    endloop
  endfacet
  facet normal -0.000000e+00 1.000000e+00 0.000000e+00
    outer loop
      vertex   6.810000e+01 -6.265000e+01 1.250000e+01
      vertex   8.610000e+01 -6.265000e+01 1.250000e+01
      vertex   6.810000e+01 -6.265000e+01 5.500000e+00
    endloop
  endfacet
  facet normal 0.000000e+00 1.000000e+00 0.000000e+00
    outer loop
      vertex   6.810000e+01 -6.265000e+01 5.500000e+00
      vertex   8.610000e+01 -6.265000e+01 1.250000e+01
      vertex   8.610000e+01 -6.265000e+01 5.500000e+00
    endloop
  endfacet
  facet normal -8.881784e-16 1.000000e+00 0.000000e+00
    outer loop
      vertex   1.178500e+02 -6.265000e+01 5.500000e+00
      vertex   1.098500e+02 -6.265000e+01 5.500000e+00
      vertex   1.098500e+02 -6.265000e+01 1.250000e+01
    endloop
  endfacet
  facet normal 0.000000e+00 1.000000e+00 -0.000000e+00
    outer loop
      vertex   6.810000e+01 -6.265000e+01 1.250000e+01
      vertex   6.710000e+01 -6.265000e+01 1.250000e+01
      vertex   1.178500e+02 -6.265000e+01 1.700000e+01
    endloop
  endfacet
  facet normal 0.000000e+00 1.000000e+00 0.000000e+00
    outer loop
      vertex   1.178500e+02 -6.265000e+01 1.700000e+01
      vertex   6.710000e+01 -6.265000e+01 1.250000e+01
      vertex   5.510000e+01 -6.265000e+01 1.250000e+01
    endloop
  endfacet
  facet normal 0.000000e+00 1.000000e+00 0.000000e+00
    outer loop
      vertex   1.178500e+02 -6.265000e+01 1.700000e+01
      vertex   5.510000e+01 -6.265000e+01 1.250000e+01
      vertex   4.350000e+00 -6.265000e+01 1.700000e+01
    endloop
  endfacet
  facet normal 0.000000e+00 1.000000e+00 0.000000e+00
    outer loop
      vertex   4.350000e+00 -6.265000e+01 1.700000e+01
      vertex   5.510000e+01 -6.265000e+01 1.250000e+01
      vertex   5.410000e+01 -6.265000e+01 1.250000e+01
    endloop
  endfacet
  facet normal 0.000000e+00 1.000000e+00 0.000000e+00
    outer loop
      vertex   4.350000e+00 -6.265000e+01 1.700000e+01
      vertex   5.410000e+01 -6.265000e+01 1.250000e+01
      vertex   3.610000e+01 -6.265000e+01 1.250000e+01
    endloop
  endfacet
  facet normal -0.000000e+00 1.000000e+00 0.000000e+00
    outer loop
      vertex   3.610000e+01 -6.265000e+01 1.250000e+01
      vertex   5.410000e+01 -6.265000e+01 1.250000e+01
      vertex   3.610000e+01 -6.265000e+01 5.500000e+00
    endloop
  endfacet
  facet normal 0.000000e+00 1.000000e+00 0.000000e+00
    outer loop
      vertex   3.610000e+01 -6.265000e+01 5.500000e+00
      vertex   5.410000e+01 -6.265000e+01 1.250000e+01
      vertex   5.410000e+01 -6.265000e+01 5.500000e+00
    endloop
  endfacet
  facet normal 0.000000e+00 1.000000e+00 -0.000000e+00
    outer loop
      vertex   6.710000e+01 -6.265000e+01 5.500000e+00
      vertex   5.510000e+01 -6.265000e+01 5.500000e+00
      vertex   6.710000e+01 -6.265000e+01 1.250000e+01
    endloop
  endfacet
  facet normal 0.000000e+00 1.000000e+00 0.000000e+00
    outer loop
      vertex   6.710000e+01 -6.265000e+01 1.250000e+01
      vertex   5.510000e+01 -6.265000e+01 5.500000e+00
      vertex   5.510000e+01 -6.265000e+01 1.250000e+01
    endloop
  endfacet
  facet normal 0.000000e+00 1.000000e+00 0.000000e+00
    outer loop
      vertex   3.610000e+01 -6.265000e+01 1.250000e+01
      vertex   1.235000e+01 -6.265000e+01 1.250000e+01
      vertex   4.350000e+00 -6.265000e+01 1.700000e+01
    endloop
  endfacet
  facet normal 3.475481e-16 1.000000e+00 6.178632e-16
    outer loop
      vertex   4.350000e+00 -6.265000e+01 1.700000e+01
      vertex   1.235000e+01 -6.265000e+01 1.250000e+01
      vertex   4.350000e+00 -6.265000e+01 5.500000e+00
    endloop
  endfacet
  facet normal 8.881784e-16 1.000000e+00 0.000000e+00
    outer loop
      vertex   4.350000e+00 -6.265000e+01 5.500000e+00
      vertex   1.235000e+01 -6.265000e+01 1.250000e+01
      vertex   1.235000e+01 -6.265000e+01 5.500000e+00
    endloop
  endfacet
  facet normal 1.000000e+00 0.000000e+00 0.000000e+00
    outer loop
      vertex   6.710000e+01 -6.515000e+01 5.500000e+00
      vertex   6.710000e+01 -6.265000e+01 5.500000e+00
      vertex   6.710000e+01 -6.515000e+01 1.250000e+01
    endloop
  endfacet
  facet normal 1.000000e+00 -0.000000e+00 0.000000e+00
    outer loop
      vertex   6.710000e+01 -6.515000e+01 1.250000e+01
      vertex   6.710000e+01 -6.265000e+01 5.500000e+00
      vertex   6.710000e+01 -6.265000e+01 1.250000e+01
    endloop
  endfacet
  facet normal -1.000000e+00 0.000000e+00 0.000000e+00
    outer loop
      vertex   6.810000e+01 -6.265000e+01 5.500000e+00
      vertex   6.810000e+01 -6.515000e+01 5.500000e+00
      vertex   6.810000e+01 -6.265000e+01 1.250000e+01
    endloop
  endfacet
  facet normal -1.000000e+00 -0.000000e+00 0.000000e+00
    outer loop
      vertex   6.810000e+01 -6.265000e+01 1.250000e+01
      vertex   6.810000e+01 -6.515000e+01 5.500000e+00
      vertex   6.810000e+01 -6.515000e+01 1.250000e+01
    endloop
  endfacet
  facet normal 0.000000e+00 0.000000e+00 -1.000000e+00
    outer loop
      vertex   6.810000e+01 -6.515000e+01 1.250000e+01
      vertex   6.710000e+01 -6.515000e+01 1.250000e+01
      vertex   6.810000e+01 -6.265000e+01 1.250000e+01
    endloop
  endfacet
  facet normal -0.000000e+00 0.000000e+00 -1.000000e+00
    outer loop
      vertex   6.810000e+01 -6.265000e+01 1.250000e+01
      vertex   6.710000e+01 -6.515000e+01 1.250000e+01
      vertex   6.710000e+01 -6.265000e+01 1.250000e+01
    endloop
  endfacet
  facet normal -1.000000e+00 0.000000e+00 0.000000e+00
    outer loop
      vertex   5.510000e+01 -6.265000e+01 5.500000e+00
      vertex   5.510000e+01 -6.515000e+01 5.500000e+00
      vertex   5.510000e+01 -6.265000e+01 1.250000e+01
    endloop
  endfacet
  facet normal -1.000000e+00 -0.000000e+00 0.000000e+00
    outer loop
      vertex   5.510000e+01 -6.265000e+01 1.250000e+01
      vertex   5.510000e+01 -6.515000e+01 5.500000e+00
      vertex   5.510000e+01 -6.515000e+01 1.250000e+01
    endloop
  endfacet
  facet normal 1.000000e+00 0.000000e+00 0.000000e+00
    outer loop
      vertex   5.410000e+01 -6.515000e+01 5.500000e+00
      vertex   5.410000e+01 -6.265000e+01 5.500000e+00
      vertex   5.410000e+01 -6.515000e+01 1.250000e+01
    endloop
  endfacet
  facet normal 1.000000e+00 -0.000000e+00 0.000000e+00
    outer loop
      vertex   5.410000e+01 -6.515000e+01 1.250000e+01
      vertex   5.410000e+01 -6.265000e+01 5.500000e+00
      vertex   5.410000e+01 -6.265000e+01 1.250000e+01
    endloop
  endfacet
  facet normal 0.000000e+00 0.000000e+00 -1.000000e+00
    outer loop
      vertex   5.410000e+01 -6.265000e+01 1.250000e+01
      vertex   5.510000e+01 -6.265000e+01 1.250000e+01
      vertex   5.410000e+01 -6.515000e+01 1.250000e+01
    endloop
  endfacet
  facet normal 0.000000e+00 0.000000e+00 -1.000000e+00
    outer loop
      vertex   5.410000e+01 -6.515000e+01 1.250000e+01
      vertex   5.510000e+01 -6.265000e+01 1.250000e+01
      vertex   5.510000e+01 -6.515000e+01 1.250000e+01
    endloop
  endfacet
  facet normal 0.000000e+00 -0.000000e+00 -1.000000e+00
    outer loop
      vertex   3.610000e+01 -6.265000e+01 5.500000e+00
      vertex   5.410000e+01 -6.265000e+01 5.500000e+00
      vertex   3.610000e+01 -6.515000e+01 5.500000e+00
    endloop
  endfacet
  facet normal 0.000000e+00 0.000000e+00 -1.000000e+00
    outer loop
      vertex   3.610000e+01 -6.515000e+01 5.500000e+00
      vertex   5.410000e+01 -6.265000e+01 5.500000e+00
      vertex   5.410000e+01 -6.515000e+01 5.500000e+00
    endloop
  endfacet
  facet normal 0.000000e+00 0.000000e+00 -1.000000e+00
    outer loop
      vertex   6.710000e+01 -6.515000e+01 5.500000e+00
      vertex   5.510000e+01 -6.515000e+01 5.500000e+00
      vertex   6.710000e+01 -6.265000e+01 5.500000e+00
    endloop
  endfacet
  facet normal -0.000000e+00 0.000000e+00 -1.000000e+00
    outer loop
      vertex   6.710000e+01 -6.265000e+01 5.500000e+00
      vertex   5.510000e+01 -6.515000e+01 5.500000e+00
      vertex   5.510000e+01 -6.265000e+01 5.500000e+00
    endloop
  endfacet
  facet normal 0.000000e+00 0.000000e+00 -1.000000e+00
    outer loop
      vertex   6.710000e+01 -4.350000e+00 8.500000e+00
      vertex   5.510000e+01 -4.350000e+00 8.500000e+00
      vertex   6.710000e+01 -1.850000e+00 8.500000e+00
    endloop
  endfacet
  facet normal -0.000000e+00 0.000000e+00 -1.000000e+00
    outer loop
      vertex   6.710000e+01 -1.850000e+00 8.500000e+00
      vertex   5.510000e+01 -4.350000e+00 8.500000e+00
      vertex   5.510000e+01 -1.850000e+00 8.500000e+00
    endloop
  endfacet
  facet normal 1.000000e+00 0.000000e+00 0.000000e+00
    outer loop
      vertex   6.710000e+01 -4.350000e+00 8.500000e+00
      vertex   6.710000e+01 -1.850000e+00 8.500000e+00
      vertex   6.710000e+01 -4.350000e+00 1.250000e+01
    endloop
  endfacet
  facet normal 1.000000e+00 -0.000000e+00 0.000000e+00
    outer loop
      vertex   6.710000e+01 -4.350000e+00 1.250000e+01
      vertex   6.710000e+01 -1.850000e+00 8.500000e+00
      vertex   6.710000e+01 -1.850000e+00 1.250000e+01
    endloop
  endfacet
  facet normal -1.000000e+00 0.000000e+00 0.000000e+00
    outer loop
      vertex   1.121000e+02 -1.850000e+00 5.500000e+00
      vertex   1.121000e+02 -4.350000e+00 5.500000e+00
      vertex   1.121000e+02 -1.850000e+00 1.250000e+01
    endloop
  endfacet
  facet normal -1.000000e+00 -0.000000e+00 0.000000e+00
    outer loop
      vertex   1.121000e+02 -1.850000e+00 1.250000e+01
      vertex   1.121000e+02 -4.350000e+00 5.500000e+00
      vertex   1.121000e+02 -4.350000e+00 1.250000e+01
    endloop
  endfacet
  facet normal 0.000000e+00 0.000000e+00 -1.000000e+00
    outer loop
      vertex   6.710000e+01 -1.850000e+00 1.250000e+01
      vertex   1.121000e+02 -1.850000e+00 1.250000e+01
      vertex   6.710000e+01 -4.350000e+00 1.250000e+01
    endloop
  endfacet
  facet normal 0.000000e+00 0.000000e+00 -1.000000e+00
    outer loop
      vertex   6.710000e+01 -4.350000e+00 1.250000e+01
      vertex   1.121000e+02 -1.850000e+00 1.250000e+01
      vertex   1.121000e+02 -4.350000e+00 1.250000e+01
    endloop
  endfacet
  facet normal -1.000000e+00 0.000000e+00 0.000000e+00
    outer loop
      vertex   5.510000e+01 -1.850000e+00 8.500000e+00
      vertex   5.510000e+01 -4.350000e+00 8.500000e+00
      vertex   5.510000e+01 -1.850000e+00 1.250000e+01
    endloop
  endfacet
  facet normal -1.000000e+00 -0.000000e+00 0.000000e+00
    outer loop
      vertex   5.510000e+01 -1.850000e+00 1.250000e+01
      vertex   5.510000e+01 -4.350000e+00 8.500000e+00
      vertex   5.510000e+01 -4.350000e+00 1.250000e+01
    endloop
  endfacet
  facet normal 1.000000e+00 0.000000e+00 0.000000e+00
    outer loop
      vertex   1.010000e+01 -4.350000e+00 5.500000e+00
      vertex   1.010000e+01 -1.850000e+00 5.500000e+00
      vertex   1.010000e+01 -4.350000e+00 1.250000e+01
    endloop
  endfacet
  facet normal 1.000000e+00 -0.000000e+00 0.000000e+00
    outer loop
      vertex   1.010000e+01 -4.350000e+00 1.250000e+01
      vertex   1.010000e+01 -1.850000e+00 5.500000e+00
      vertex   1.010000e+01 -1.850000e+00 1.250000e+01
    endloop
  endfacet
  facet normal 0.000000e+00 0.000000e+00 -1.000000e+00
    outer loop
      vertex   1.010000e+01 -1.850000e+00 1.250000e+01
      vertex   5.510000e+01 -1.850000e+00 1.250000e+01
      vertex   1.010000e+01 -4.350000e+00 1.250000e+01
    endloop
  endfacet
  facet normal 0.000000e+00 0.000000e+00 -1.000000e+00
    outer loop
      vertex   1.010000e+01 -4.350000e+00 1.250000e+01
      vertex   5.510000e+01 -1.850000e+00 1.250000e+01
      vertex   5.510000e+01 -4.350000e+00 1.250000e+01
    endloop
  endfacet
  facet normal 1.000000e+00 -0.000000e+00 0.000000e+00
    outer loop
      vertex   6.510000e+01 -6.585000e+01 1.100000e+01
      vertex   6.510000e+01 -6.515000e+01 1.030000e+01
      vertex   6.510000e+01 -6.515000e+01 1.170000e+01
    endloop
  endfacet
  facet normal 0.000000e+00 -7.071068e-01 7.071068e-01
    outer loop
      vertex   6.510000e+01 -6.585000e+01 1.100000e+01
      vertex   6.510000e+01 -6.515000e+01 1.170000e+01
      vertex   5.710000e+01 -6.585000e+01 1.100000e+01
    endloop
  endfacet
  facet normal 0.000000e+00 -7.071068e-01 7.071068e-01
    outer loop
      vertex   5.710000e+01 -6.585000e+01 1.100000e+01
      vertex   6.510000e+01 -6.515000e+01 1.170000e+01
      vertex   5.710000e+01 -6.515000e+01 1.170000e+01
    endloop
  endfacet
  facet normal -0.000000e+00 -7.071068e-01 -7.071068e-01
    outer loop
      vertex   6.510000e+01 -6.515000e+01 1.030000e+01
      vertex   6.510000e+01 -6.585000e+01 1.100000e+01
      vertex   5.710000e+01 -6.515000e+01 1.030000e+01
    endloop
  endfacet
  facet normal 0.000000e+00 -7.071068e-01 -7.071068e-01
    outer loop
      vertex   5.710000e+01 -6.515000e+01 1.030000e+01
      vertex   6.510000e+01 -6.585000e+01 1.100000e+01
      vertex   5.710000e+01 -6.585000e+01 1.100000e+01
    endloop
  endfacet
  facet normal -1.000000e+00 0.000000e+00 0.000000e+00
    outer loop
      vertex   5.710000e+01 -6.515000e+01 1.030000e+01
      vertex   5.710000e+01 -6.585000e+01 1.100000e+01
      vertex   5.710000e+01 -6.515000e+01 1.170000e+01
    endloop
  endfacet
  facet normal 1.000000e+00 0.000000e+00 -0.000000e+00
    outer loop
      vertex   6.510000e+01 -1.850000e+00 1.030000e+01
      vertex   6.510000e+01 -1.150000e+00 1.100000e+01
      vertex   6.510000e+01 -1.850000e+00 1.170000e+01
    endloop
  endfacet
  facet normal -3.925231e-17 7.071068e-01 7.071068e-01
    outer loop
      vertex   5.710000e+01 -1.150000e+00 1.100000e+01
      vertex   5.710000e+01 -1.850000e+00 1.170000e+01
      vertex   6.510000e+01 -1.150000e+00 1.100000e+01
    endloop
  endfacet
  facet normal 2.102802e-17 7.071068e-01 7.071068e-01
    outer loop
      vertex   6.510000e+01 -1.150000e+00 1.100000e+01
      vertex   5.710000e+01 -1.850000e+00 1.170000e+01
      vertex   6.510000e+01 -1.850000e+00 1.170000e+01
    endloop
  endfacet
  facet normal 0.000000e+00 7.071068e-01 -7.071068e-01
    outer loop
      vertex   5.710000e+01 -1.850000e+00 1.030000e+01
      vertex   5.710000e+01 -1.150000e+00 1.100000e+01
      vertex   6.510000e+01 -1.850000e+00 1.030000e+01
    endloop
  endfacet
  facet normal -3.504671e-17 7.071068e-01 -7.071068e-01
    outer loop
      vertex   6.510000e+01 -1.850000e+00 1.030000e+01
      vertex   5.710000e+01 -1.150000e+00 1.100000e+01
      vertex   6.510000e+01 -1.150000e+00 1.100000e+01
    endloop
  endfacet
  facet normal -1.000000e+00 -0.000000e+00 0.000000e+00
    outer loop
      vertex   5.710000e+01 -1.150000e+00 1.100000e+01
      vertex   5.710000e+01 -1.850000e+00 1.030000e+01
      vertex   5.710000e+01 -1.850000e+00 1.170000e+01
    endloop
  endfacet
  facet normal 1.000000e+00 0.000000e+00 0.000000e+00
    outer loop
      vertex   4.350000e+00 -1.237506e+01 5.500000e+00
      vertex   4.350000e+00 -4.350000e+00 5.500000e+00
      vertex   4.350000e+00 -1.237506e+01 1.250000e+01
    endloop
  endfacet
  facet normal 1.000000e+00 6.736776e-17 7.723291e-17
    outer loop
      vertex   4.350000e+00 -1.237506e+01 1.250000e+01
      vertex   4.350000e+00 -4.350000e+00 5.500000e+00
      vertex   4.350000e+00 -4.350000e+00 1.700000e+01
    endloop
  endfacet
  facet normal 1.000000e+00 -3.865858e-17 2.663146e-16
    outer loop
      vertex   4.350000e+00 -1.237506e+01 1.250000e+01
      vertex   4.350000e+00 -4.350000e+00 1.700000e+01
      vertex   4.350000e+00 -3.535000e+01 1.250000e+01
    endloop
  endfacet
  facet normal 1.000000e+00 -6.093849e-17 4.197985e-16
    outer loop
      vertex   4.350000e+00 -3.535000e+01 1.250000e+01
      vertex   4.350000e+00 -4.350000e+00 1.700000e+01
      vertex   4.350000e+00 -6.265000e+01 1.700000e+01
    endloop
  endfacet
  facet normal 1.000000e+00 -1.046746e-16 1.544658e-16
    outer loop
      vertex   4.350000e+00 -3.535000e+01 1.250000e+01
      vertex   4.350000e+00 -6.265000e+01 1.700000e+01
      vertex   4.350000e+00 -6.265000e+01 5.500000e+00
    endloop
  endfacet
  facet normal 1.000000e+00 -6.506802e-17 0.000000e+00
    outer loop
      vertex   4.350000e+00 -6.265000e+01 5.500000e+00
      vertex   4.350000e+00 -3.535000e+01 5.500000e+00
      vertex   4.350000e+00 -3.535000e+01 1.250000e+01
    endloop
  endfacet
  facet normal 1.000000e+00 0.000000e+00 0.000000e+00
    outer loop
      vertex   1.203500e+02 -1.850000e+00 1.420000e+01
      vertex   1.203500e+02 -6.515000e+01 1.420000e+01
      vertex   1.203500e+02 -1.850000e+00 5.500000e+00
    endloop
  endfacet
  facet normal 1.000000e+00 0.000000e+00 0.000000e+00
    outer loop
      vertex   1.203500e+02 -1.850000e+00 5.500000e+00
      vertex   1.203500e+02 -6.515000e+01 1.420000e+01
      vertex   1.203500e+02 -6.515000e+01 5.500000e+00
    endloop
  endfacet
  facet normal 2.998071e-17 1.000000e+00 4.166436e-16
    outer loop
      vertex   1.203500e+02 -1.850000e+00 1.420000e+01
      vertex   5.510000e+01 -1.850000e+00 1.250000e+01
      vertex   1.850000e+00 -1.850000e+00 1.420000e+01
    endloop
  endfacet
  facet normal 2.467162e-17 1.000000e+00 2.503444e-16
    outer loop
      vertex   1.850000e+00 -1.850000e+00 1.420000e+01
      vertex   5.510000e+01 -1.850000e+00 1.250000e+01
      vertex   1.010000e+01 -1.850000e+00 1.250000e+01
    endloop
  endfacet
  facet normal -2.691450e-17 1.000000e+00 0.000000e+00
    outer loop
      vertex   1.850000e+00 -1.850000e+00 1.420000e+01
      vertex   1.010000e+01 -1.850000e+00 1.250000e+01
      vertex   1.850000e+00 -1.850000e+00 5.500000e+00
    endloop
  endfacet
  facet normal -1.076580e-16 1.000000e+00 9.516197e-17
    outer loop
      vertex   1.850000e+00 -1.850000e+00 5.500000e+00
      vertex   1.010000e+01 -1.850000e+00 1.250000e+01
      vertex   1.010000e+01 -1.850000e+00 5.500000e+00
    endloop
  endfacet
  facet normal 5.382900e-17 1.000000e+00 -0.000000e+00
    outer loop
      vertex   1.203500e+02 -1.850000e+00 5.500000e+00
      vertex   1.121000e+02 -1.850000e+00 1.250000e+01
      vertex   1.203500e+02 -1.850000e+00 1.420000e+01
    endloop
  endfacet
  facet normal 3.947460e-17 1.000000e+00 6.966105e-17
    outer loop
      vertex   1.203500e+02 -1.850000e+00 1.420000e+01
      vertex   1.121000e+02 -1.850000e+00 1.250000e+01
      vertex   6.710000e+01 -1.850000e+00 1.250000e+01
    endloop
  endfacet
  facet normal 3.700743e-17 1.000000e+00 1.469413e-16
    outer loop
      vertex   1.203500e+02 -1.850000e+00 1.420000e+01
      vertex   6.710000e+01 -1.850000e+00 1.250000e+01
      vertex   5.510000e+01 -1.850000e+00 1.250000e+01
    endloop
  endfacet
  facet normal 3.700743e-17 1.000000e+00 9.251859e-17
    outer loop
      vertex   5.510000e+01 -1.850000e+00 1.250000e+01
      vertex   6.710000e+01 -1.850000e+00 1.250000e+01
      vertex   5.710000e+01 -1.850000e+00 1.170000e+01
    endloop
  endfacet
  facet normal 0.000000e+00 1.000000e+00 0.000000e+00
    outer loop
      vertex   5.510000e+01 -1.850000e+00 1.250000e+01
      vertex   5.710000e+01 -1.850000e+00 1.170000e+01
      vertex   5.710000e+01 -1.850000e+00 1.030000e+01
    endloop
  endfacet
  facet normal 5.382900e-17 1.000000e+00 0.000000e+00
    outer loop
      vertex   1.203500e+02 -1.850000e+00 5.500000e+00
      vertex   1.121000e+02 -1.850000e+00 5.500000e+00
      vertex   1.121000e+02 -1.850000e+00 1.250000e+01
    endloop
  endfacet
  facet normal 1.609823e-16 1.000000e+00 5.551115e-17
    outer loop
      vertex   6.710000e+01 -1.850000e+00 8.500000e+00
      vertex   6.510000e+01 -1.850000e+00 1.030000e+01
      vertex   6.710000e+01 -1.850000e+00 1.250000e+01
    endloop
  endfacet
  facet normal 4.758099e-17 1.000000e+00 1.586033e-16
    outer loop
      vertex   6.710000e+01 -1.850000e+00 1.250000e+01
      vertex   6.510000e+01 -1.850000e+00 1.030000e+01
      vertex   6.510000e+01 -1.850000e+00 1.170000e+01
    endloop
  endfacet
  facet normal 2.775558e-17 1.000000e+00 2.081668e-16
    outer loop
      vertex   6.710000e+01 -1.850000e+00 1.250000e+01
      vertex   6.510000e+01 -1.850000e+00 1.170000e+01
      vertex   5.710000e+01 -1.850000e+00 1.170000e+01
    endloop
  endfacet
  facet normal 1.850372e-17 1.000000e+00 -1.027984e-16
    outer loop
      vertex   6.710000e+01 -1.850000e+00 8.500000e+00
      vertex   5.510000e+01 -1.850000e+00 8.500000e+00
      vertex   6.510000e+01 -1.850000e+00 1.030000e+01
    endloop
  endfacet
  facet normal 0.000000e+00 1.000000e+00 0.000000e+00
    outer loop
      vertex   6.510000e+01 -1.850000e+00 1.030000e+01
      vertex   5.510000e+01 -1.850000e+00 8.500000e+00
      vertex   5.710000e+01 -1.850000e+00 1.030000e+01
    endloop
  endfacet
  facet normal 0.000000e+00 1.000000e+00 0.000000e+00
    outer loop
      vertex   5.710000e+01 -1.850000e+00 1.030000e+01
      vertex   5.510000e+01 -1.850000e+00 8.500000e+00
      vertex   5.510000e+01 -1.850000e+00 1.250000e+01
    endloop
  endfacet
  facet normal 1.000000e+00 0.000000e+00 0.000000e+00
    outer loop
      vertex   1.240000e+02 -6.400000e+01 1.420000e+01
      vertex   1.240000e+02 -3.000000e+00 1.420000e+01
      vertex   1.240000e+02 -6.400000e+01 1.900000e+01
    endloop
  endfacet
  facet normal 1.000000e+00 -0.000000e+00 0.000000e+00
    outer loop
      vertex   1.240000e+02 -6.400000e+01 1.900000e+01
      vertex   1.240000e+02 -3.000000e+00 1.420000e+01
      vertex   1.240000e+02 -3.000000e+00 1.900000e+01
    endloop
  endfacet
  facet normal 6.540313e-02 -9.978589e-01 0.000000e+00
    outer loop
      vertex   1.210000e+02 -6.700000e+01 1.900000e+01
      vertex   1.210000e+02 -6.700000e+01 1.420000e+01
      vertex   1.213916e+02 -6.697433e+01 1.900000e+01
    endloop
  endfacet
  facet normal 6.540313e-02 -9.978589e-01 0.000000e+00
    outer loop
      vertex   1.213916e+02 -6.697433e+01 1.900000e+01
      vertex   1.210000e+02 -6.700000e+01 1.420000e+01
      vertex   1.213916e+02 -6.697433e+01 1.420000e+01
    endloop
  endfacet
  facet normal 1.950903e-01 -9.807853e-01 0.000000e+00
    outer loop
      vertex   1.213916e+02 -6.697433e+01 1.900000e+01
      vertex   1.213916e+02 -6.697433e+01 1.420000e+01
      vertex   1.217765e+02 -6.689778e+01 1.900000e+01
    endloop
  endfacet
  facet normal 1.950903e-01 -9.807853e-01 0.000000e+00
    outer loop
      vertex   1.217765e+02 -6.689778e+01 1.900000e+01
      vertex   1.213916e+02 -6.697433e+01 1.420000e+01
      vertex   1.217765e+02 -6.689778e+01 1.420000e+01
    endloop
  endfacet
  facet normal 3.214395e-01 -9.469301e-01 0.000000e+00
    outer loop
      vertex   1.217765e+02 -6.689778e+01 1.900000e+01
      vertex   1.217765e+02 -6.689778e+01 1.420000e+01
      vertex   1.221481e+02 -6.677164e+01 1.900000e+01
    endloop
  endfacet
  facet normal 3.214395e-01 -9.469301e-01 0.000000e+00
    outer loop
      vertex   1.221481e+02 -6.677164e+01 1.900000e+01
      vertex   1.217765e+02 -6.689778e+01 1.420000e+01
      vertex   1.221481e+02 -6.677164e+01 1.420000e+01
    endloop
  endfacet
  facet normal 4.422887e-01 -8.968727e-01 0.000000e+00
    outer loop
      vertex   1.221481e+02 -6.677164e+01 1.900000e+01
      vertex   1.221481e+02 -6.677164e+01 1.420000e+01
      vertex   1.225000e+02 -6.659808e+01 1.900000e+01
    endloop
  endfacet
  facet normal 4.422887e-01 -8.968727e-01 0.000000e+00
    outer loop
      vertex   1.225000e+02 -6.659808e+01 1.900000e+01
      vertex   1.221481e+02 -6.677164e+01 1.420000e+01
      vertex   1.225000e+02 -6.659808e+01 1.420000e+01
    endloop
  endfacet
  facet normal 5.555702e-01 -8.314696e-01 0.000000e+00
    outer loop
      vertex   1.225000e+02 -6.659808e+01 1.900000e+01
      vertex   1.225000e+02 -6.659808e+01 1.420000e+01
      vertex   1.228263e+02 -6.638006e+01 1.900000e+01
    endloop
  endfacet
  facet normal 5.555702e-01 -8.314696e-01 0.000000e+00
    outer loop
      vertex   1.228263e+02 -6.638006e+01 1.900000e+01
      vertex   1.225000e+02 -6.659808e+01 1.420000e+01
      vertex   1.228263e+02 -6.638006e+01 1.420000e+01
    endloop
  endfacet
  facet normal 6.593458e-01 -7.518398e-01 0.000000e+00
    outer loop
      vertex   1.228263e+02 -6.638006e+01 1.900000e+01
      vertex   1.228263e+02 -6.638006e+01 1.420000e+01
      vertex   1.231213e+02 -6.612132e+01 1.900000e+01
    endloop
  endfacet
  facet normal 6.593458e-01 -7.518398e-01 0.000000e+00
    outer loop
      vertex   1.231213e+02 -6.612132e+01 1.900000e+01
      vertex   1.228263e+02 -6.638006e+01 1.420000e+01
      vertex   1.231213e+02 -6.612132e+01 1.420000e+01
    endloop
  endfacet
  facet normal 7.518398e-01 -6.593458e-01 0.000000e+00
    outer loop
      vertex   1.231213e+02 -6.612132e+01 1.900000e+01
      vertex   1.231213e+02 -6.612132e+01 1.420000e+01
      vertex   1.233801e+02 -6.582628e+01 1.900000e+01
    endloop
  endfacet
  facet normal 7.518398e-01 -6.593458e-01 0.000000e+00
    outer loop
      vertex   1.233801e+02 -6.582628e+01 1.900000e+01
      vertex   1.231213e+02 -6.612132e+01 1.420000e+01
      vertex   1.233801e+02 -6.582628e+01 1.420000e+01
    endloop
  endfacet
  facet normal 8.314696e-01 -5.555702e-01 0.000000e+00
    outer loop
      vertex   1.233801e+02 -6.582628e+01 1.900000e+01
      vertex   1.233801e+02 -6.582628e+01 1.420000e+01
      vertex   1.235981e+02 -6.550000e+01 1.900000e+01
    endloop
  endfacet
  facet normal 8.314696e-01 -5.555702e-01 0.000000e+00
    outer loop
      vertex   1.235981e+02 -6.550000e+01 1.900000e+01
      vertex   1.233801e+02 -6.582628e+01 1.420000e+01
      vertex   1.235981e+02 -6.550000e+01 1.420000e+01
    endloop
  endfacet
  facet normal 8.968727e-01 -4.422887e-01 0.000000e+00
    outer loop
      vertex   1.235981e+02 -6.550000e+01 1.900000e+01
      vertex   1.235981e+02 -6.550000e+01 1.420000e+01
      vertex   1.237716e+02 -6.514805e+01 1.900000e+01
    endloop
  endfacet
  facet normal 8.968727e-01 -4.422887e-01 0.000000e+00
    outer loop
      vertex   1.237716e+02 -6.514805e+01 1.900000e+01
      vertex   1.235981e+02 -6.550000e+01 1.420000e+01
      vertex   1.237716e+02 -6.514805e+01 1.420000e+01
    endloop
  endfacet
  facet normal 9.469301e-01 -3.214395e-01 0.000000e+00
    outer loop
      vertex   1.237716e+02 -6.514805e+01 1.900000e+01
      vertex   1.237716e+02 -6.514805e+01 1.420000e+01
      vertex   1.238978e+02 -6.477646e+01 1.900000e+01
    endloop
  endfacet
  facet normal 9.469301e-01 -3.214395e-01 0.000000e+00
    outer loop
      vertex   1.238978e+02 -6.477646e+01 1.900000e+01
      vertex   1.237716e+02 -6.514805e+01 1.420000e+01
      vertex   1.238978e+02 -6.477646e+01 1.420000e+01
    endloop
  endfacet
  facet normal 9.807853e-01 -1.950903e-01 0.000000e+00
    outer loop
      vertex   1.238978e+02 -6.477646e+01 1.900000e+01
      vertex   1.238978e+02 -6.477646e+01 1.420000e+01
      vertex   1.239743e+02 -6.439158e+01 1.900000e+01
    endloop
  endfacet
  facet normal 9.807853e-01 -1.950903e-01 0.000000e+00
    outer loop
      vertex   1.239743e+02 -6.439158e+01 1.900000e+01
      vertex   1.238978e+02 -6.477646e+01 1.420000e+01
      vertex   1.239743e+02 -6.439158e+01 1.420000e+01
    endloop
  endfacet
  facet normal 9.978589e-01 -6.540313e-02 0.000000e+00
    outer loop
      vertex   1.239743e+02 -6.439158e+01 1.900000e+01
      vertex   1.239743e+02 -6.439158e+01 1.420000e+01
      vertex   1.240000e+02 -6.400000e+01 1.900000e+01
    endloop
  endfacet
  facet normal 9.978589e-01 -6.540313e-02 0.000000e+00
    outer loop
      vertex   1.240000e+02 -6.400000e+01 1.900000e+01
      vertex   1.239743e+02 -6.439158e+01 1.420000e+01
      vertex   1.240000e+02 -6.400000e+01 1.420000e+01
    endloop
  endfacet
  facet normal 0.000000e+00 -1.000000e+00 0.000000e+00
    outer loop
      vertex   3.000000e+00 -6.700000e+01 1.420000e+01
      vertex   1.210000e+02 -6.700000e+01 1.420000e+01
      vertex   3.000000e+00 -6.700000e+01 1.900000e+01
    endloop
  endfacet
  facet normal 0.000000e+00 -1.000000e+00 0.000000e+00
    outer loop
      vertex   3.000000e+00 -6.700000e+01 1.900000e+01
      vertex   1.210000e+02 -6.700000e+01 1.420000e+01
      vertex   1.210000e+02 -6.700000e+01 1.900000e+01
    endloop
  endfacet
  facet normal -9.978589e-01 -6.540313e-02 -0.000000e+00
    outer loop
      vertex   0.000000e+00 -6.400000e+01 1.900000e+01
      vertex   0.000000e+00 -6.400000e+01 1.420000e+01
      vertex   2.566542e-02 -6.439158e+01 1.900000e+01
    endloop
  endfacet
  facet normal -9.978589e-01 -6.540313e-02 -0.000000e+00
    outer loop
      vertex   2.566542e-02 -6.439158e+01 1.900000e+01
      vertex   0.000000e+00 -6.400000e+01 1.420000e+01
      vertex   2.566542e-02 -6.439158e+01 1.420000e+01
    endloop
  endfacet
  facet normal -9.807853e-01 -1.950903e-01 -0.000000e+00
    outer loop
      vertex   2.566542e-02 -6.439158e+01 1.900000e+01
      vertex   2.566542e-02 -6.439158e+01 1.420000e+01
      vertex   1.022225e-01 -6.477646e+01 1.900000e+01
    endloop
  endfacet
  facet normal -9.807853e-01 -1.950903e-01 2.835652e-17
    outer loop
      vertex   1.022225e-01 -6.477646e+01 1.900000e+01
      vertex   2.566542e-02 -6.439158e+01 1.420000e+01
      vertex   1.022225e-01 -6.477646e+01 1.420000e+01
    endloop
  endfacet
  facet normal -9.469301e-01 -3.214395e-01 2.737770e-17
    outer loop
      vertex   1.022225e-01 -6.477646e+01 1.900000e+01
      vertex   1.022225e-01 -6.477646e+01 1.420000e+01
      vertex   2.283614e-01 -6.514805e+01 1.900000e+01
    endloop
  endfacet
  facet normal -9.469301e-01 -3.214395e-01 -0.000000e+00
    outer loop
      vertex   2.283614e-01 -6.514805e+01 1.900000e+01
      vertex   1.022225e-01 -6.477646e+01 1.420000e+01
      vertex   2.283614e-01 -6.514805e+01 1.420000e+01
    endloop
  endfacet
  facet normal -8.968727e-01 -4.422887e-01 -0.000000e+00
    outer loop
      vertex   2.283614e-01 -6.514805e+01 1.900000e+01
      vertex   2.283614e-01 -6.514805e+01 1.420000e+01
      vertex   4.019238e-01 -6.550000e+01 1.900000e+01
    endloop
  endfacet
  facet normal -8.968727e-01 -4.422887e-01 -0.000000e+00
    outer loop
      vertex   4.019238e-01 -6.550000e+01 1.900000e+01
      vertex   2.283614e-01 -6.514805e+01 1.420000e+01
      vertex   4.019238e-01 -6.550000e+01 1.420000e+01
    endloop
  endfacet
  facet normal -8.314696e-01 -5.555702e-01 -0.000000e+00
    outer loop
      vertex   4.019238e-01 -6.550000e+01 1.900000e+01
      vertex   4.019238e-01 -6.550000e+01 1.420000e+01
      vertex   6.199400e-01 -6.582628e+01 1.900000e+01
    endloop
  endfacet
  facet normal -8.314696e-01 -5.555702e-01 -0.000000e+00
    outer loop
      vertex   6.199400e-01 -6.582628e+01 1.900000e+01
      vertex   4.019238e-01 -6.550000e+01 1.420000e+01
      vertex   6.199400e-01 -6.582628e+01 1.420000e+01
    endloop
  endfacet
  facet normal -7.518398e-01 -6.593458e-01 -0.000000e+00
    outer loop
      vertex   6.199400e-01 -6.582628e+01 1.900000e+01
      vertex   6.199400e-01 -6.582628e+01 1.420000e+01
      vertex   8.786797e-01 -6.612132e+01 1.900000e+01
    endloop
  endfacet
  facet normal -7.518398e-01 -6.593458e-01 5.216937e-17
    outer loop
      vertex   8.786797e-01 -6.612132e+01 1.900000e+01
      vertex   6.199400e-01 -6.582628e+01 1.420000e+01
      vertex   8.786797e-01 -6.612132e+01 1.420000e+01
    endloop
  endfacet
  facet normal -6.593458e-01 -7.518398e-01 4.575131e-17
    outer loop
      vertex   8.786797e-01 -6.612132e+01 1.900000e+01
      vertex   8.786797e-01 -6.612132e+01 1.420000e+01
      vertex   1.173716e+00 -6.638006e+01 1.900000e+01
    endloop
  endfacet
  facet normal -6.593458e-01 -7.518398e-01 3.050087e-17
    outer loop
      vertex   1.173716e+00 -6.638006e+01 1.900000e+01
      vertex   8.786797e-01 -6.612132e+01 1.420000e+01
      vertex   1.173716e+00 -6.638006e+01 1.420000e+01
    endloop
  endfacet
  facet normal -5.555702e-01 -8.314696e-01 2.570029e-17
    outer loop
      vertex   1.173716e+00 -6.638006e+01 1.900000e+01
      vertex   1.173716e+00 -6.638006e+01 1.420000e+01
      vertex   1.500000e+00 -6.659808e+01 1.900000e+01
    endloop
  endfacet
  facet normal -5.555702e-01 -8.314696e-01 5.140057e-17
    outer loop
      vertex   1.500000e+00 -6.659808e+01 1.900000e+01
      vertex   1.173716e+00 -6.638006e+01 1.420000e+01
      vertex   1.500000e+00 -6.659808e+01 1.420000e+01
    endloop
  endfacet
  facet normal -4.422887e-01 -8.968727e-01 4.091992e-17
    outer loop
      vertex   1.500000e+00 -6.659808e+01 1.900000e+01
      vertex   1.500000e+00 -6.659808e+01 1.420000e+01
      vertex   1.851950e+00 -6.677164e+01 1.900000e+01
    endloop
  endfacet
  facet normal -4.422887e-01 -8.968727e-01 8.183985e-17
    outer loop
      vertex   1.851950e+00 -6.677164e+01 1.900000e+01
      vertex   1.500000e+00 -6.659808e+01 1.420000e+01
      vertex   1.851950e+00 -6.677164e+01 1.420000e+01
    endloop
  endfacet
  facet normal -3.214395e-01 -9.469301e-01 5.947825e-17
    outer loop
      vertex   1.851950e+00 -6.677164e+01 1.900000e+01
      vertex   1.851950e+00 -6.677164e+01 1.420000e+01
      vertex   2.223543e+00 -6.689778e+01 1.900000e+01
    endloop
  endfacet
  facet normal -3.214395e-01 -9.469301e-01 5.947825e-17
    outer loop
      vertex   2.223543e+00 -6.689778e+01 1.900000e+01
      vertex   1.851950e+00 -6.677164e+01 1.420000e+01
      vertex   2.223543e+00 -6.689778e+01 1.420000e+01
    endloop
  endfacet
  facet normal -1.950903e-01 -9.807853e-01 3.609896e-17
    outer loop
      vertex   2.223543e+00 -6.689778e+01 1.900000e+01
      vertex   2.223543e+00 -6.689778e+01 1.420000e+01
      vertex   2.608421e+00 -6.697433e+01 1.900000e+01
    endloop
  endfacet
  facet normal -1.950903e-01 -9.807853e-01 -0.000000e+00
    outer loop
      vertex   2.608421e+00 -6.697433e+01 1.900000e+01
      vertex   2.223543e+00 -6.689778e+01 1.420000e+01
      vertex   2.608421e+00 -6.697433e+01 1.420000e+01
    endloop
  endfacet
  facet normal -6.540313e-02 -9.978589e-01 -0.000000e+00
    outer loop
      vertex   2.608421e+00 -6.697433e+01 1.900000e+01
      vertex   2.608421e+00 -6.697433e+01 1.420000e+01
      vertex   3.000000e+00 -6.700000e+01 1.900000e+01
    endloop
  endfacet
  facet normal -6.540313e-02 -9.978589e-01 1.089181e-16
    outer loop
      vertex   3.000000e+00 -6.700000e+01 1.900000e+01
      vertex   2.608421e+00 -6.697433e+01 1.420000e+01
      vertex   3.000000e+00 -6.700000e+01 1.420000e+01
    endloop
  endfacet
  facet normal -1.000000e+00 0.000000e+00 0.000000e+00
    outer loop
      vertex   0.000000e+00 -3.000000e+00 1.420000e+01
      vertex   0.000000e+00 -6.400000e+01 1.420000e+01
      vertex   0.000000e+00 -3.000000e+00 1.900000e+01
    endloop
  endfacet
  facet normal -1.000000e+00 -0.000000e+00 0.000000e+00
    outer loop
      vertex   0.000000e+00 -3.000000e+00 1.900000e+01
      vertex   0.000000e+00 -6.400000e+01 1.420000e+01
      vertex   0.000000e+00 -6.400000e+01 1.900000e+01
    endloop
  endfacet
  facet normal -6.540313e-02 9.978589e-01 1.210201e-16
    outer loop
      vertex   3.000000e+00 0.000000e+00 1.900000e+01
      vertex   3.000000e+00 -9.319016e-35 1.420000e+01
      vertex   2.608421e+00 -2.566542e-02 1.900000e+01
    endloop
  endfacet
  facet normal -6.540313e-02 9.978589e-01 -5.164930e-17
    outer loop
      vertex   2.608421e+00 -2.566542e-02 1.900000e+01
      vertex   3.000000e+00 -9.319016e-35 1.420000e+01
      vertex   2.608421e+00 -2.566542e-02 1.420000e+01
    endloop
  endfacet
  facet normal -1.950903e-01 9.807853e-01 -3.866356e-17
    outer loop
      vertex   2.608421e+00 -2.566542e-02 1.900000e+01
      vertex   2.608421e+00 -2.566542e-02 1.420000e+01
      vertex   2.223543e+00 -1.022225e-01 1.900000e+01
    endloop
  endfacet
  facet normal -1.950903e-01 9.807853e-01 7.476252e-17
    outer loop
      vertex   2.223543e+00 -1.022225e-01 1.900000e+01
      vertex   2.608421e+00 -2.566542e-02 1.420000e+01
      vertex   2.223543e+00 -1.022225e-01 1.420000e+01
    endloop
  endfacet
  facet normal -3.214395e-01 9.469301e-01 8.449452e-17
    outer loop
      vertex   2.223543e+00 -1.022225e-01 1.900000e+01
      vertex   2.223543e+00 -1.022225e-01 1.420000e+01
      vertex   1.851950e+00 -2.283614e-01 1.900000e+01
    endloop
  endfacet
  facet normal -3.214395e-01 9.469301e-01 -5.239397e-17
    outer loop
      vertex   1.851950e+00 -2.283614e-01 1.900000e+01
      vertex   2.223543e+00 -1.022225e-01 1.420000e+01
      vertex   1.851950e+00 -2.283614e-01 1.420000e+01
    endloop
  endfacet
  facet normal -4.422887e-01 8.968727e-01 -3.687139e-17
    outer loop
      vertex   1.851950e+00 -2.283614e-01 1.900000e+01
      vertex   1.851950e+00 -2.283614e-01 1.420000e+01
      vertex   1.500000e+00 -4.019238e-01 1.900000e+01
    endloop
  endfacet
  facet normal -4.422887e-01 8.968727e-01 -2.102874e-17
    outer loop
      vertex   1.500000e+00 -4.019238e-01 1.900000e+01
      vertex   1.851950e+00 -2.283614e-01 1.420000e+01
      vertex   1.500000e+00 -4.019238e-01 1.420000e+01
    endloop
  endfacet
  facet normal -5.555702e-01 8.314696e-01 -1.276291e-17
    outer loop
      vertex   1.500000e+00 -4.019238e-01 1.900000e+01
      vertex   1.500000e+00 -4.019238e-01 1.420000e+01
      vertex   1.173716e+00 -6.199400e-01 1.900000e+01
    endloop
  endfacet
  facet normal -5.555702e-01 8.314696e-01 1.293738e-17
    outer loop
      vertex   1.173716e+00 -6.199400e-01 1.900000e+01
      vertex   1.500000e+00 -4.019238e-01 1.420000e+01
      vertex   1.173716e+00 -6.199400e-01 1.420000e+01
    endloop
  endfacet
  facet normal -6.593458e-01 7.518398e-01 2.622216e-17
    outer loop
      vertex   1.173716e+00 -6.199400e-01 1.900000e+01
      vertex   1.173716e+00 -6.199400e-01 1.420000e+01
      vertex   8.786797e-01 -8.786797e-01 1.900000e+01
    endloop
  endfacet
  facet normal -6.593458e-01 7.518398e-01 -2.808656e-17
    outer loop
      vertex   8.786797e-01 -8.786797e-01 1.900000e+01
      vertex   1.173716e+00 -6.199400e-01 1.420000e+01
      vertex   8.786797e-01 -8.786797e-01 1.420000e+01
    endloop
  endfacet
  facet normal -7.518398e-01 6.593458e-01 -4.553669e-18
    outer loop
      vertex   8.786797e-01 -8.786797e-01 1.900000e+01
      vertex   8.786797e-01 -8.786797e-01 1.420000e+01
      vertex   6.199400e-01 -1.173716e+00 1.900000e+01
    endloop
  endfacet
  facet normal -7.518398e-01 6.593458e-01 -2.622216e-17
    outer loop
      vertex   6.199400e-01 -1.173716e+00 1.900000e+01
      vertex   8.786797e-01 -8.786797e-01 1.420000e+01
      vertex   6.199400e-01 -1.173716e+00 1.420000e+01
    endloop
  endfacet
  facet normal -8.314696e-01 5.555702e-01 -1.293738e-17
    outer loop
      vertex   6.199400e-01 -1.173716e+00 1.900000e+01
      vertex   6.199400e-01 -1.173716e+00 1.420000e+01
      vertex   4.019238e-01 -1.500000e+00 1.900000e+01
    endloop
  endfacet
  facet normal -8.314696e-01 5.555702e-01 1.276291e-17
    outer loop
      vertex   4.019238e-01 -1.500000e+00 1.900000e+01
      vertex   6.199400e-01 -1.173716e+00 1.420000e+01
      vertex   4.019238e-01 -1.500000e+00 1.420000e+01
    endloop
  endfacet
  facet normal -8.968727e-01 4.422887e-01 2.102874e-17
    outer loop
      vertex   4.019238e-01 -1.500000e+00 1.900000e+01
      vertex   4.019238e-01 -1.500000e+00 1.420000e+01
      vertex   2.283614e-01 -1.851950e+00 1.900000e+01
    endloop
  endfacet
  facet normal -8.968727e-01 4.422887e-01 6.280182e-17
    outer loop
      vertex   2.283614e-01 -1.851950e+00 1.900000e+01
      vertex   4.019238e-01 -1.500000e+00 1.420000e+01
      vertex   2.283614e-01 -1.851950e+00 1.420000e+01
    endloop
  endfacet
  facet normal -9.469301e-01 3.214395e-01 7.977167e-17
    outer loop
      vertex   2.283614e-01 -1.851950e+00 1.900000e+01
      vertex   2.283614e-01 -1.851950e+00 1.420000e+01
      vertex   1.022225e-01 -2.223543e+00 1.900000e+01
    endloop
  endfacet
  facet normal -9.469301e-01 3.214395e-01 -5.475540e-17
    outer loop
      vertex   1.022225e-01 -2.223543e+00 1.900000e+01
      vertex   2.283614e-01 -1.851950e+00 1.420000e+01
      vertex   1.022225e-01 -2.223543e+00 1.420000e+01
    endloop
  endfacet
  facet normal -9.807853e-01 1.950903e-01 -5.671304e-17
    outer loop
      vertex   1.022225e-01 -2.223543e+00 1.900000e+01
      vertex   1.022225e-01 -2.223543e+00 1.420000e+01
      vertex   2.566542e-02 -2.608421e+00 1.900000e+01
    endloop
  endfacet
  facet normal -9.807853e-01 1.950903e-01 3.866356e-17
    outer loop
      vertex   2.566542e-02 -2.608421e+00 1.900000e+01
      vertex   1.022225e-01 -2.223543e+00 1.420000e+01
      vertex   2.566542e-02 -2.608421e+00 1.420000e+01
    endloop
  endfacet
  facet normal -9.978589e-01 6.540313e-02 5.164930e-17
    outer loop
      vertex   2.566542e-02 -2.608421e+00 1.900000e+01
      vertex   2.566542e-02 -2.608421e+00 1.420000e+01
      vertex   0.000000e+00 -3.000000e+00 1.900000e+01
    endloop
  endfacet
  facet normal -9.978589e-01 6.540313e-02 0.000000e+00
    outer loop
      vertex   0.000000e+00 -3.000000e+00 1.900000e+01
      vertex   2.566542e-02 -2.608421e+00 1.420000e+01
      vertex   0.000000e+00 -3.000000e+00 1.420000e+01
    endloop
  endfacet
  facet normal 3.106339e-35 1.000000e+00 -7.830562e-34
    outer loop
      vertex   1.210000e+02 -3.758670e-33 1.420000e+01
      vertex   3.000000e+00 -9.319016e-35 1.420000e+01
      vertex   1.210000e+02 0.000000e+00 1.900000e+01
    endloop
  endfacet
  facet normal 0.000000e+00 1.000000e+00 -1.941462e-35
    outer loop
      vertex   1.210000e+02 0.000000e+00 1.900000e+01
      vertex   3.000000e+00 -9.319016e-35 1.420000e+01
      vertex   3.000000e+00 0.000000e+00 1.900000e+01
    endloop
  endfacet
  facet normal 9.978589e-01 6.540313e-02 0.000000e+00
    outer loop
      vertex   1.240000e+02 -3.000000e+00 1.900000e+01
      vertex   1.240000e+02 -3.000000e+00 1.420000e+01
      vertex   1.239743e+02 -2.608421e+00 1.900000e+01
    endloop
  endfacet
  facet normal 9.978589e-01 6.540313e-02 1.210201e-17
    outer loop
      vertex   1.239743e+02 -2.608421e+00 1.900000e+01
      vertex   1.240000e+02 -3.000000e+00 1.420000e+01
      vertex   1.239743e+02 -2.608421e+00 1.420000e+01
    endloop
  endfacet
  facet normal 9.807853e-01 1.950903e-01 3.609896e-17
    outer loop
      vertex   1.239743e+02 -2.608421e+00 1.900000e+01
      vertex   1.239743e+02 -2.608421e+00 1.420000e+01
      vertex   1.238978e+02 -2.223543e+00 1.900000e+01
    endloop
  endfacet
  facet normal 9.807853e-01 1.950903e-01 0.000000e+00
    outer loop
      vertex   1.238978e+02 -2.223543e+00 1.900000e+01
      vertex   1.239743e+02 -2.608421e+00 1.420000e+01
      vertex   1.238978e+02 -2.223543e+00 1.420000e+01
    endloop
  endfacet
  facet normal 9.469301e-01 3.214395e-01 0.000000e+00
    outer loop
      vertex   1.238978e+02 -2.223543e+00 1.900000e+01
      vertex   1.238978e+02 -2.223543e+00 1.420000e+01
      vertex   1.237716e+02 -1.851950e+00 1.900000e+01
    endloop
  endfacet
  facet normal 9.469301e-01 3.214395e-01 2.973912e-17
    outer loop
      vertex   1.237716e+02 -1.851950e+00 1.900000e+01
      vertex   1.238978e+02 -2.223543e+00 1.420000e+01
      vertex   1.237716e+02 -1.851950e+00 1.420000e+01
    endloop
  endfacet
  facet normal 8.968727e-01 4.422887e-01 4.091992e-17
    outer loop
      vertex   1.237716e+02 -1.851950e+00 1.900000e+01
      vertex   1.237716e+02 -1.851950e+00 1.420000e+01
      vertex   1.235981e+02 -1.500000e+00 1.900000e+01
    endloop
  endfacet
  facet normal 8.968727e-01 4.422887e-01 8.183985e-17
    outer loop
      vertex   1.235981e+02 -1.500000e+00 1.900000e+01
      vertex   1.237716e+02 -1.851950e+00 1.420000e+01
      vertex   1.235981e+02 -1.500000e+00 1.420000e+01
    endloop
  endfacet
  facet normal 8.314696e-01 5.555702e-01 1.028011e-16
    outer loop
      vertex   1.235981e+02 -1.500000e+00 1.900000e+01
      vertex   1.235981e+02 -1.500000e+00 1.420000e+01
      vertex   1.233801e+02 -1.173716e+00 1.900000e+01
    endloop
  endfacet
  facet normal 8.314696e-01 5.555702e-01 5.140057e-17
    outer loop
      vertex   1.233801e+02 -1.173716e+00 1.900000e+01
      vertex   1.235981e+02 -1.500000e+00 1.420000e+01
      vertex   1.233801e+02 -1.173716e+00 1.420000e+01
    endloop
  endfacet
  facet normal 7.518398e-01 6.593458e-01 6.100174e-17
    outer loop
      vertex   1.233801e+02 -1.173716e+00 1.900000e+01
      vertex   1.233801e+02 -1.173716e+00 1.420000e+01
      vertex   1.231213e+02 -8.786797e-01 1.900000e+01
    endloop
  endfacet
  facet normal 7.518398e-01 6.593458e-01 3.050087e-17
    outer loop
      vertex   1.231213e+02 -8.786797e-01 1.900000e+01
      vertex   1.233801e+02 -1.173716e+00 1.420000e+01
      vertex   1.231213e+02 -8.786797e-01 1.420000e+01
    endloop
  endfacet
  facet normal 6.593458e-01 7.518398e-01 3.477958e-17
    outer loop
      vertex   1.231213e+02 -8.786797e-01 1.900000e+01
      vertex   1.231213e+02 -8.786797e-01 1.420000e+01
      vertex   1.228263e+02 -6.199400e-01 1.900000e+01
    endloop
  endfacet
  facet normal 6.593458e-01 7.518398e-01 1.738979e-17
    outer loop
      vertex   1.228263e+02 -6.199400e-01 1.900000e+01
      vertex   1.231213e+02 -8.786797e-01 1.420000e+01
      vertex   1.228263e+02 -6.199400e-01 1.420000e+01
    endloop
  endfacet
  facet normal 5.555702e-01 8.314696e-01 1.923160e-17
    outer loop
      vertex   1.228263e+02 -6.199400e-01 1.900000e+01
      vertex   1.228263e+02 -6.199400e-01 1.420000e+01
      vertex   1.225000e+02 -4.019238e-01 1.900000e+01
    endloop
  endfacet
  facet normal 5.555702e-01 8.314696e-01 3.846320e-17
    outer loop
      vertex   1.225000e+02 -4.019238e-01 1.900000e+01
      vertex   1.228263e+02 -6.199400e-01 1.420000e+01
      vertex   1.225000e+02 -4.019238e-01 1.420000e+01
    endloop
  endfacet
  facet normal 4.422887e-01 8.968727e-01 4.148870e-17
    outer loop
      vertex   1.225000e+02 -4.019238e-01 1.900000e+01
      vertex   1.225000e+02 -4.019238e-01 1.420000e+01
      vertex   1.221481e+02 -2.283614e-01 1.900000e+01
    endloop
  endfacet
  facet normal 4.422887e-01 8.968727e-01 0.000000e+00
    outer loop
      vertex   1.221481e+02 -2.283614e-01 1.900000e+01
      vertex   1.225000e+02 -4.019238e-01 1.420000e+01
      vertex   1.221481e+02 -2.283614e-01 1.420000e+01
    endloop
  endfacet
  facet normal 3.214395e-01 9.469301e-01 0.000000e+00
    outer loop
      vertex   1.221481e+02 -2.283614e-01 1.900000e+01
      vertex   1.221481e+02 -2.283614e-01 1.420000e+01
      vertex   1.217765e+02 -1.022225e-01 1.900000e+01
    endloop
  endfacet
  facet normal 3.214395e-01 9.469301e-01 8.213310e-17
    outer loop
      vertex   1.217765e+02 -1.022225e-01 1.900000e+01
      vertex   1.221481e+02 -2.283614e-01 1.420000e+01
      vertex   1.217765e+02 -1.022225e-01 1.420000e+01
    endloop
  endfacet
  facet normal 1.950903e-01 9.807853e-01 8.506956e-17
    outer loop
      vertex   1.217765e+02 -1.022225e-01 1.900000e+01
      vertex   1.217765e+02 -1.022225e-01 1.420000e+01
      vertex   1.213916e+02 -2.566542e-02 1.900000e+01
    endloop
  endfacet
  facet normal 1.950903e-01 9.807853e-01 -5.671304e-17
    outer loop
      vertex   1.213916e+02 -2.566542e-02 1.900000e+01
      vertex   1.217765e+02 -1.022225e-01 1.420000e+01
      vertex   1.213916e+02 -2.566542e-02 1.420000e+01
    endloop
  endfacet
  facet normal 6.540313e-02 9.978589e-01 -5.770031e-17
    outer loop
      vertex   1.213916e+02 -2.566542e-02 1.900000e+01
      vertex   1.213916e+02 -2.566542e-02 1.420000e+01
      vertex   1.210000e+02 0.000000e+00 1.900000e+01
    endloop
  endfacet
  facet normal 6.540313e-02 9.978589e-01 -7.813796e-34
    outer loop
      vertex   1.210000e+02 0.000000e+00 1.900000e+01
      vertex   1.213916e+02 -2.566542e-02 1.420000e+01
      vertex   1.210000e+02 -3.758670e-33 1.420000e+01
    endloop
  endfacet
  facet normal 0.000000e+00 0.000000e+00 -1.000000e+00
    outer loop
      vertex   1.850000e+00 -6.515000e+01 1.420000e+01
      vertex   0.000000e+00 -6.400000e+01 1.420000e+01
      vertex   1.850000e+00 -1.850000e+00 1.420000e+01
    endloop
  endfacet
  facet normal 0.000000e+00 0.000000e+00 -1.000000e+00
    outer loop
      vertex   1.850000e+00 -1.850000e+00 1.420000e+01
      vertex   0.000000e+00 -6.400000e+01 1.420000e+01
      vertex   0.000000e+00 -3.000000e+00 1.420000e+01
    endloop
  endfacet
  facet normal 0.000000e+00 0.000000e+00 -1.000000e+00
    outer loop
      vertex   1.850000e+00 -1.850000e+00 1.420000e+01
      vertex   0.000000e+00 -3.000000e+00 1.420000e+01
      vertex   2.566542e-02 -2.608421e+00 1.420000e+01
    endloop
  endfacet
  facet normal -0.000000e+00 0.000000e+00 -1.000000e+00
    outer loop
      vertex   1.203500e+02 -6.515000e+01 1.420000e+01
      vertex   3.000000e+00 -6.700000e+01 1.420000e+01
      vertex   1.850000e+00 -6.515000e+01 1.420000e+01
    endloop
  endfacet
  facet normal 0.000000e+00 0.000000e+00 -1.000000e+00
    outer loop
      vertex   1.850000e+00 -6.515000e+01 1.420000e+01
      vertex   3.000000e+00 -6.700000e+01 1.420000e+01
      vertex   2.608421e+00 -6.697433e+01 1.420000e+01
    endloop
  endfacet
  facet normal 0.000000e+00 0.000000e+00 -1.000000e+00
    outer loop
      vertex   1.850000e+00 -6.515000e+01 1.420000e+01
      vertex   2.608421e+00 -6.697433e+01 1.420000e+01
      vertex   2.223543e+00 -6.689778e+01 1.420000e+01
    endloop
  endfacet
  facet normal 0.000000e+00 0.000000e+00 -1.000000e+00
    outer loop
      vertex   1.203500e+02 -1.850000e+00 1.420000e+01
      vertex   1.240000e+02 -6.400000e+01 1.420000e+01
      vertex   1.203500e+02 -6.515000e+01 1.420000e+01
    endloop
  endfacet
  facet normal 0.000000e+00 0.000000e+00 -1.000000e+00
    outer loop
      vertex   1.203500e+02 -6.515000e+01 1.420000e+01
      vertex   1.240000e+02 -6.400000e+01 1.420000e+01
      vertex   1.239743e+02 -6.439158e+01 1.420000e+01
    endloop
  endfacet
  facet normal 0.000000e+00 0.000000e+00 -1.000000e+00
    outer loop
      vertex   1.203500e+02 -6.515000e+01 1.420000e+01
      vertex   1.239743e+02 -6.439158e+01 1.420000e+01
      vertex   1.238978e+02 -6.477646e+01 1.420000e+01
    endloop
  endfacet
  facet normal 0.000000e+00 0.000000e+00 -1.000000e+00
    outer loop
      vertex   1.850000e+00 -1.850000e+00 1.420000e+01
      vertex   3.000000e+00 -9.319016e-35 1.420000e+01
      vertex   1.203500e+02 -1.850000e+00 1.420000e+01
    endloop
  endfacet
  facet normal 0.000000e+00 0.000000e+00 -1.000000e+00
    outer loop
      vertex   1.203500e+02 -1.850000e+00 1.420000e+01
      vertex   3.000000e+00 -9.319016e-35 1.420000e+01
      vertex   1.210000e+02 -3.758670e-33 1.420000e+01
    endloop
  endfacet
  facet normal 0.000000e+00 0.000000e+00 -1.000000e+00
    outer loop
      vertex   1.203500e+02 -1.850000e+00 1.420000e+01
      vertex   1.210000e+02 -3.758670e-33 1.420000e+01
      vertex   1.213916e+02 -2.566542e-02 1.420000e+01
    endloop
  endfacet
  facet normal 0.000000e+00 -0.000000e+00 -1.000000e+00
    outer loop
      vertex   1.213916e+02 -2.566542e-02 1.420000e+01
      vertex   1.217765e+02 -1.022225e-01 1.420000e+01
      vertex   1.203500e+02 -1.850000e+00 1.420000e+01
    endloop
  endfacet
  facet normal 0.000000e+00 0.000000e+00 -1.000000e+00
    outer loop
      vertex   1.203500e+02 -1.850000e+00 1.420000e+01
      vertex   1.217765e+02 -1.022225e-01 1.420000e+01
      vertex   1.221481e+02 -2.283614e-01 1.420000e+01
    endloop
  endfacet
  facet normal 0.000000e+00 0.000000e+00 -1.000000e+00
    outer loop
      vertex   1.203500e+02 -1.850000e+00 1.420000e+01
      vertex   1.221481e+02 -2.283614e-01 1.420000e+01
      vertex   1.225000e+02 -4.019238e-01 1.420000e+01
    endloop
  endfacet
  facet normal 0.000000e+00 -0.000000e+00 -1.000000e+00
    outer loop
      vertex   1.225000e+02 -4.019238e-01 1.420000e+01
      vertex   1.228263e+02 -6.199400e-01 1.420000e+01
      vertex   1.203500e+02 -1.850000e+00 1.420000e+01
    endloop
  endfacet
  facet normal 0.000000e+00 0.000000e+00 -1.000000e+00
    outer loop
      vertex   1.203500e+02 -1.850000e+00 1.420000e+01
      vertex   1.228263e+02 -6.199400e-01 1.420000e+01
      vertex   1.231213e+02 -8.786797e-01 1.420000e+01
    endloop
  endfacet
  facet normal 0.000000e+00 0.000000e+00 -1.000000e+00
    outer loop
      vertex   1.203500e+02 -1.850000e+00 1.420000e+01
      vertex   1.231213e+02 -8.786797e-01 1.420000e+01
      vertex   1.233801e+02 -1.173716e+00 1.420000e+01
    endloop
  endfacet
  facet normal 0.000000e+00 -0.000000e+00 -1.000000e+00
    outer loop
      vertex   1.233801e+02 -1.173716e+00 1.420000e+01
      vertex   1.235981e+02 -1.500000e+00 1.420000e+01
      vertex   1.203500e+02 -1.850000e+00 1.420000e+01
    endloop
  endfacet
  facet normal 0.000000e+00 0.000000e+00 -1.000000e+00
    outer loop
      vertex   1.203500e+02 -1.850000e+00 1.420000e+01
      vertex   1.235981e+02 -1.500000e+00 1.420000e+01
      vertex   1.237716e+02 -1.851950e+00 1.420000e+01
    endloop
  endfacet
  facet normal 0.000000e+00 0.000000e+00 -1.000000e+00
    outer loop
      vertex   1.203500e+02 -1.850000e+00 1.420000e+01
      vertex   1.237716e+02 -1.851950e+00 1.420000e+01
      vertex   1.238978e+02 -2.223543e+00 1.420000e+01
    endloop
  endfacet
  facet normal -0.000000e+00 -0.000000e+00 -1.000000e+00
    outer loop
      vertex   1.238978e+02 -2.223543e+00 1.420000e+01
      vertex   1.239743e+02 -2.608421e+00 1.420000e+01
      vertex   1.203500e+02 -1.850000e+00 1.420000e+01
    endloop
  endfacet
  facet normal 0.000000e+00 0.000000e+00 -1.000000e+00
    outer loop
      vertex   1.203500e+02 -1.850000e+00 1.420000e+01
      vertex   1.239743e+02 -2.608421e+00 1.420000e+01
      vertex   1.240000e+02 -3.000000e+00 1.420000e+01
    endloop
  endfacet
  facet normal 0.000000e+00 0.000000e+00 -1.000000e+00
    outer loop
      vertex   1.203500e+02 -1.850000e+00 1.420000e+01
      vertex   1.240000e+02 -3.000000e+00 1.420000e+01
      vertex   1.240000e+02 -6.400000e+01 1.420000e+01
    endloop
  endfacet
  facet normal 0.000000e+00 0.000000e+00 -1.000000e+00
    outer loop
      vertex   1.238978e+02 -6.477646e+01 1.420000e+01
      vertex   1.237716e+02 -6.514805e+01 1.420000e+01
      vertex   1.203500e+02 -6.515000e+01 1.420000e+01
    endloop
  endfacet
  facet normal 0.000000e+00 0.000000e+00 -1.000000e+00
    outer loop
      vertex   1.203500e+02 -6.515000e+01 1.420000e+01
      vertex   1.237716e+02 -6.514805e+01 1.420000e+01
      vertex   1.235981e+02 -6.550000e+01 1.420000e+01
    endloop
  endfacet
  facet normal 0.000000e+00 0.000000e+00 -1.000000e+00
    outer loop
      vertex   1.203500e+02 -6.515000e+01 1.420000e+01
      vertex   1.235981e+02 -6.550000e+01 1.420000e+01
      vertex   1.233801e+02 -6.582628e+01 1.420000e+01
    endloop
  endfacet
  facet normal -0.000000e+00 0.000000e+00 -1.000000e+00
    outer loop
      vertex   1.233801e+02 -6.582628e+01 1.420000e+01
      vertex   1.231213e+02 -6.612132e+01 1.420000e+01
      vertex   1.203500e+02 -6.515000e+01 1.420000e+01
    endloop
  endfacet
  facet normal 0.000000e+00 0.000000e+00 -1.000000e+00
    outer loop
      vertex   1.203500e+02 -6.515000e+01 1.420000e+01
      vertex   1.231213e+02 -6.612132e+01 1.420000e+01
      vertex   1.228263e+02 -6.638006e+01 1.420000e+01
    endloop
  endfacet
  facet normal 0.000000e+00 0.000000e+00 -1.000000e+00
    outer loop
      vertex   1.203500e+02 -6.515000e+01 1.420000e+01
      vertex   1.228263e+02 -6.638006e+01 1.420000e+01
      vertex   1.225000e+02 -6.659808e+01 1.420000e+01
    endloop
  endfacet
  facet normal -0.000000e+00 0.000000e+00 -1.000000e+00
    outer loop
      vertex   1.225000e+02 -6.659808e+01 1.420000e+01
      vertex   1.221481e+02 -6.677164e+01 1.420000e+01
      vertex   1.203500e+02 -6.515000e+01 1.420000e+01
    endloop
  endfacet
  facet normal 0.000000e+00 0.000000e+00 -1.000000e+00
    outer loop
      vertex   1.203500e+02 -6.515000e+01 1.420000e+01
      vertex   1.221481e+02 -6.677164e+01 1.420000e+01
      vertex   1.217765e+02 -6.689778e+01 1.420000e+01
    endloop
  endfacet
  facet normal 0.000000e+00 0.000000e+00 -1.000000e+00
    outer loop
      vertex   1.203500e+02 -6.515000e+01 1.420000e+01
      vertex   1.217765e+02 -6.689778e+01 1.420000e+01
      vertex   1.213916e+02 -6.697433e+01 1.420000e+01
    endloop
  endfacet
  facet normal -0.000000e+00 0.000000e+00 -1.000000e+00
    outer loop
      vertex   1.213916e+02 -6.697433e+01 1.420000e+01
      vertex   1.210000e+02 -6.700000e+01 1.420000e+01
      vertex   1.203500e+02 -6.515000e+01 1.420000e+01
    endloop
  endfacet
  facet normal 0.000000e+00 -0.000000e+00 -1.000000e+00
    outer loop
      vertex   1.203500e+02 -6.515000e+01 1.420000e+01
      vertex   1.210000e+02 -6.700000e+01 1.420000e+01
      vertex   3.000000e+00 -6.700000e+01 1.420000e+01
    endloop
  endfacet
  facet normal 0.000000e+00 0.000000e+00 -1.000000e+00
    outer loop
      vertex   2.223543e+00 -6.689778e+01 1.420000e+01
      vertex   1.851950e+00 -6.677164e+01 1.420000e+01
      vertex   1.850000e+00 -6.515000e+01 1.420000e+01
    endloop
  endfacet
  facet normal 0.000000e+00 -0.000000e+00 -1.000000e+00
    outer loop
      vertex   1.850000e+00 -6.515000e+01 1.420000e+01
      vertex   1.851950e+00 -6.677164e+01 1.420000e+01
      vertex   1.500000e+00 -6.659808e+01 1.420000e+01
    endloop
  endfacet
  facet normal 0.000000e+00 0.000000e+00 -1.000000e+00
    outer loop
      vertex   1.850000e+00 -6.515000e+01 1.420000e+01
      vertex   1.500000e+00 -6.659808e+01 1.420000e+01
      vertex   1.173716e+00 -6.638006e+01 1.420000e+01
    endloop
  endfacet
  facet normal 0.000000e+00 0.000000e+00 -1.000000e+00
    outer loop
      vertex   1.173716e+00 -6.638006e+01 1.420000e+01
      vertex   8.786797e-01 -6.612132e+01 1.420000e+01
      vertex   1.850000e+00 -6.515000e+01 1.420000e+01
    endloop
  endfacet
  facet normal 0.000000e+00 0.000000e+00 -1.000000e+00
    outer loop
      vertex   1.850000e+00 -6.515000e+01 1.420000e+01
      vertex   8.786797e-01 -6.612132e+01 1.420000e+01
      vertex   6.199400e-01 -6.582628e+01 1.420000e+01
    endloop
  endfacet
  facet normal 0.000000e+00 0.000000e+00 -1.000000e+00
    outer loop
      vertex   1.850000e+00 -6.515000e+01 1.420000e+01
      vertex   6.199400e-01 -6.582628e+01 1.420000e+01
      vertex   4.019238e-01 -6.550000e+01 1.420000e+01
    endloop
  endfacet
  facet normal 0.000000e+00 0.000000e+00 -1.000000e+00
    outer loop
      vertex   4.019238e-01 -6.550000e+01 1.420000e+01
      vertex   2.283614e-01 -6.514805e+01 1.420000e+01
      vertex   1.850000e+00 -6.515000e+01 1.420000e+01
    endloop
  endfacet
  facet normal 0.000000e+00 0.000000e+00 -1.000000e+00
    outer loop
      vertex   1.850000e+00 -6.515000e+01 1.420000e+01
      vertex   2.283614e-01 -6.514805e+01 1.420000e+01
      vertex   1.022225e-01 -6.477646e+01 1.420000e+01
    endloop
  endfacet
  facet normal 0.000000e+00 0.000000e+00 -1.000000e+00
    outer loop
      vertex   1.850000e+00 -6.515000e+01 1.420000e+01
      vertex   1.022225e-01 -6.477646e+01 1.420000e+01
      vertex   2.566542e-02 -6.439158e+01 1.420000e+01
    endloop
  endfacet
  facet normal 0.000000e+00 0.000000e+00 -1.000000e+00
    outer loop
      vertex   2.566542e-02 -6.439158e+01 1.420000e+01
      vertex   0.000000e+00 -6.400000e+01 1.420000e+01
      vertex   1.850000e+00 -6.515000e+01 1.420000e+01
    endloop
  endfacet
  facet normal 0.000000e+00 0.000000e+00 -1.000000e+00
    outer loop
      vertex   2.566542e-02 -2.608421e+00 1.420000e+01
      vertex   1.022225e-01 -2.223543e+00 1.420000e+01
      vertex   1.850000e+00 -1.850000e+00 1.420000e+01
    endloop
  endfacet
  facet normal 0.000000e+00 0.000000e+00 -1.000000e+00
    outer loop
      vertex   1.850000e+00 -1.850000e+00 1.420000e+01
      vertex   1.022225e-01 -2.223543e+00 1.420000e+01
      vertex   2.283614e-01 -1.851950e+00 1.420000e+01
    endloop
  endfacet
  facet normal -0.000000e+00 0.000000e+00 -1.000000e+00
    outer loop
      vertex   1.850000e+00 -1.850000e+00 1.420000e+01
      vertex   2.283614e-01 -1.851950e+00 1.420000e+01
      vertex   4.019238e-01 -1.500000e+00 1.420000e+01
    endloop
  endfacet
  facet normal 0.000000e+00 0.000000e+00 -1.000000e+00
    outer loop
      vertex   4.019238e-01 -1.500000e+00 1.420000e+01
      vertex   6.199400e-01 -1.173716e+00 1.420000e+01
      vertex   1.850000e+00 -1.850000e+00 1.420000e+01
    endloop
  endfacet
  facet normal 0.000000e+00 0.000000e+00 -1.000000e+00
    outer loop
      vertex   1.850000e+00 -1.850000e+00 1.420000e+01
      vertex   6.199400e-01 -1.173716e+00 1.420000e+01
      vertex   8.786797e-01 -8.786797e-01 1.420000e+01
    endloop
  endfacet
  facet normal 0.000000e+00 0.000000e+00 -1.000000e+00
    outer loop
      vertex   1.850000e+00 -1.850000e+00 1.420000e+01
      vertex   8.786797e-01 -8.786797e-01 1.420000e+01
      vertex   1.173716e+00 -6.199400e-01 1.420000e+01
    endloop
  endfacet
  facet normal 0.000000e+00 0.000000e+00 -1.000000e+00
    outer loop
      vertex   1.173716e+00 -6.199400e-01 1.420000e+01
      vertex   1.500000e+00 -4.019238e-01 1.420000e+01
      vertex   1.850000e+00 -1.850000e+00 1.420000e+01
    endloop
  endfacet
  facet normal 0.000000e+00 0.000000e+00 -1.000000e+00
    outer loop
      vertex   1.850000e+00 -1.850000e+00 1.420000e+01
      vertex   1.500000e+00 -4.019238e-01 1.420000e+01
      vertex   1.851950e+00 -2.283614e-01 1.420000e+01
    endloop
  endfacet
  facet normal 0.000000e+00 0.000000e+00 -1.000000e+00
    outer loop
      vertex   1.850000e+00 -1.850000e+00 1.420000e+01
      vertex   1.851950e+00 -2.283614e-01 1.420000e+01
      vertex   2.223543e+00 -1.022225e-01 1.420000e+01
    endloop
  endfacet
  facet normal 0.000000e+00 -0.000000e+00 -1.000000e+00
    outer loop
      vertex   2.223543e+00 -1.022225e-01 1.420000e+01
      vertex   2.608421e+00 -2.566542e-02 1.420000e+01
      vertex   1.850000e+00 -1.850000e+00 1.420000e+01
    endloop
  endfacet
  facet normal 0.000000e+00 0.000000e+00 -1.000000e+00
    outer loop
      vertex   1.850000e+00 -1.850000e+00 1.420000e+01
      vertex   2.608421e+00 -2.566542e-02 1.420000e+01
      vertex   3.000000e+00 -9.319016e-35 1.420000e+01
    endloop
  endfacet
endsolid
